<svg xmlns="http://www.w3.org/2000/svg" viewBox="0 0 1500 1000"
     font-family="Inter, system-ui, sans-serif" fill="#1a1a1a">
  <style>
    .display { font-family: 'Fraunces', Georgia, serif; }
    .mono    { font-family: 'JetBrains Mono', ui-monospace, monospace; }
  </style>

  <rect width="1500" height="1000" fill="#faf6ec"/>

  <!-- HEADER -->
  <text x="60" y="52" font-size="28" font-weight="600" letter-spacing="-0.5">
    Huit postes sur quatre phases — l'infra compute et la data dominent
  </text>
  <text x="60" y="86" class="display" font-size="18" font-style="italic" fill="#5a5a5a">
    Largeur de chaque colonne ∝ coût total de la phase (k€), hauteur de chaque bloc = part du poste. Le socle a un coût fixe lourd, amorti en aval.
  </text>

  <text x="107" y="184" class="mono" font-size="13" font-weight="700" text-anchor="middle">298</text>
  <text x="185" y="184" class="mono" font-size="13" font-weight="700" text-anchor="middle">910</text>
  <text x="370" y="184" class="mono" font-size="15" font-weight="700" text-anchor="middle">2 240 k€</text>
  <text x="708" y="184" class="mono" font-size="15" font-weight="700" text-anchor="middle">3 680 k€</text>

  <rect x="90" y="498.7" width="33" height="201.3" fill="#b8582e"/>
  <rect x="90" y="485.2" width="33" height="13.4" fill="#3d5a82"/>
  <rect x="90" y="418.1" width="33" height="67.1" fill="#8fb0d6"/>
  <rect x="90" y="401.3" width="33" height="16.8" fill="#a83232"/>
  <rect x="90" y="384.6" width="33" height="16.8" fill="#d4a000"/>
  <rect x="90" y="283.9" width="33" height="100.7" fill="#2e7a7a"/>
  <rect x="90" y="250.3" width="33" height="33.6" fill="#5a8a6a"/>
  <rect x="90" y="200" width="33" height="50.3" fill="#9a9a9a"/>
  <rect x="90" y="200" width="33" height="500" fill="none" stroke="#c5b9a3" stroke-width="1"/>
  <rect x="135" y="524.2" width="100" height="175.8" fill="#b8582e"/>
  <rect x="135" y="502.2" width="100" height="22" fill="#3d5a82"/>
  <rect x="135" y="441.8" width="100" height="60.4" fill="#8fb0d6"/>
  <rect x="135" y="408.8" width="100" height="33" fill="#a83232"/>
  <rect x="135" y="386.8" width="100" height="22" fill="#d4a000"/>
  <rect x="135" y="287.9" width="100" height="98.9" fill="#2e7a7a"/>
  <rect x="135" y="249.5" width="100" height="38.5" fill="#5a8a6a"/>
  <rect x="135" y="200" width="100" height="49.5" fill="#9a9a9a"/>
  <rect x="135" y="200" width="100" height="500" fill="none" stroke="#c5b9a3" stroke-width="1"/>
  <text x="185" y="616.1" font-size="12" font-weight="600" fill="#ffffff" text-anchor="middle">Équipe 35%</text>
  <text x="185" y="476" font-size="12" font-weight="600" fill="#ffffff" text-anchor="middle">Infra 12%</text>
  <text x="185" y="429.3" font-size="11" font-weight="400" fill="#ffffff" text-anchor="middle">Change 7%</text>
  <text x="185" y="341.4" font-size="12" font-weight="600" fill="#ffffff" text-anchor="middle">Data 20%</text>
  <text x="185" y="272.7" font-size="11" font-weight="400" fill="#ffffff" text-anchor="middle">Sécurité 8%</text>
  <text x="185" y="228.7" font-size="12" font-weight="600" fill="#ffffff" text-anchor="middle">Gouvernance 10%</text>
  <rect x="247" y="557.1" width="246" height="142.9" fill="#b8582e"/>
  <rect x="247" y="521.4" width="246" height="35.7" fill="#3d5a82"/>
  <rect x="247" y="436.6" width="246" height="84.8" fill="#8fb0d6"/>
  <rect x="247" y="383" width="246" height="53.6" fill="#a83232"/>
  <rect x="247" y="358.5" width="246" height="24.6" fill="#d4a000"/>
  <rect x="247" y="287.1" width="246" height="71.4" fill="#2e7a7a"/>
  <rect x="247" y="249.1" width="246" height="37.9" fill="#5a8a6a"/>
  <rect x="247" y="200" width="246" height="49.1" fill="#9a9a9a"/>
  <rect x="247" y="200" width="246" height="500" fill="none" stroke="#c5b9a3" stroke-width="1"/>
  <text x="370" y="632.6" font-size="12" font-weight="600" fill="#ffffff" text-anchor="middle">Équipe 29%</text>
  <text x="370" y="543.3" font-size="11" font-weight="400" fill="#ffffff" text-anchor="middle">Inférence 7%</text>
  <text x="370" y="483" font-size="12" font-weight="600" fill="#ffffff" text-anchor="middle">Infra 17%</text>
  <text x="370" y="413.8" font-size="12" font-weight="600" fill="#ffffff" text-anchor="middle">Change 11%</text>
  <text x="370" y="326.8" font-size="12" font-weight="600" fill="#ffffff" text-anchor="middle">Data 14%</text>
  <text x="370" y="272.1" font-size="11" font-weight="400" fill="#ffffff" text-anchor="middle">Sécurité 8%</text>
  <text x="370" y="228.6" font-size="12" font-weight="600" fill="#ffffff" text-anchor="middle">Gouvernance 10%</text>
  <rect x="505" y="537" width="405" height="163" fill="#b8582e"/>
  <rect x="505" y="498.9" width="405" height="38" fill="#3d5a82"/>
  <rect x="505" y="414.7" width="405" height="84.2" fill="#8fb0d6"/>
  <rect x="505" y="363" width="405" height="51.6" fill="#a83232"/>
  <rect x="505" y="335.9" width="405" height="27.2" fill="#d4a000"/>
  <rect x="505" y="278.8" width="405" height="57.1" fill="#2e7a7a"/>
  <rect x="505" y="243.5" width="405" height="35.3" fill="#5a8a6a"/>
  <rect x="505" y="200" width="405" height="43.5" fill="#9a9a9a"/>
  <rect x="505" y="200" width="405" height="500" fill="none" stroke="#c5b9a3" stroke-width="1"/>
  <text x="707.5" y="622.5" font-size="12" font-weight="600" fill="#ffffff" text-anchor="middle">Équipe 33%</text>
  <text x="707.5" y="521.9" font-size="11" font-weight="400" fill="#ffffff" text-anchor="middle">Inférence 8%</text>
  <text x="707.5" y="460.8" font-size="12" font-weight="600" fill="#ffffff" text-anchor="middle">Infra 17%</text>
  <text x="707.5" y="392.9" font-size="12" font-weight="600" fill="#ffffff" text-anchor="middle">Change 10%</text>
  <text x="707.5" y="311.3" font-size="12" font-weight="600" fill="#ffffff" text-anchor="middle">Data 11%</text>
  <text x="707.5" y="265.1" font-size="11" font-weight="400" fill="#ffffff" text-anchor="middle">Sécurité 7%</text>
  <text x="707.5" y="225.7" font-size="11" font-weight="400" fill="#ffffff" text-anchor="middle">Gouvernance 9%</text>

  <line x1="90" y1="700" x2="910" y2="700" stroke="#1a1a1a" stroke-width="1.6"/>
  <text x="107" y="722" font-size="13" font-weight="600" text-anchor="middle">Socle</text>
  <text x="185" y="722" font-size="13" font-weight="600" text-anchor="middle">Gouvernance</text>
  <text x="370" y="722" font-size="14" font-weight="600" text-anchor="middle">Démocratisation</text>
  <text x="708" y="722" font-size="14" font-weight="600" text-anchor="middle">Socle fédéré</text>

  <text x="60" y="746" class="mono" font-size="11" font-weight="700" letter-spacing="0.08" fill="#2e7a7a">DOMAINES GOUVERNÉS / CONSOMMATEURS</text>
  <rect x="75" y="752" width="64" height="24" fill="#e8f0ef" stroke="#2e7a7a" stroke-width="1.2" rx="12"/>
  <text x="107" y="769" class="mono" font-size="11" font-weight="700" fill="#2e7a7a" text-anchor="middle">1 / 20</text>
  <rect x="153" y="752" width="64" height="24" fill="#e8f0ef" stroke="#2e7a7a" stroke-width="1.2" rx="12"/>
  <text x="185" y="769" class="mono" font-size="11" font-weight="700" fill="#2e7a7a" text-anchor="middle">3 / 150</text>
  <rect x="322" y="752" width="96" height="24" fill="#e8f0ef" stroke="#2e7a7a" stroke-width="1.2" rx="12"/>
  <text x="370" y="769" class="mono" font-size="11" font-weight="700" fill="#2e7a7a" text-anchor="middle">majeurs / 2 000</text>
  <rect x="660" y="752" width="96" height="24" fill="#2e7a7a" stroke="#2e7a7a" stroke-width="1.2" rx="12"/>
  <text x="708" y="769" class="mono" font-size="11" font-weight="700" style="fill:#ffffff" text-anchor="middle">fédéré / N</text>
  <text x="90" y="794" font-size="11" font-weight="700" fill="#b8582e">crossover du socle ≈ 3-4 domaines : au-delà, il s'amortit sur tous les cas en aval (CC-00, CC-01, CC-02…)</text>

  <text x="1030" y="160" class="mono" font-size="12" font-weight="700" letter-spacing="0.14" fill="#5a5a5a">POSTE — TRAJECTOIRE POC → SCALE (k€)</text>
  <rect x="1030" y="184" width="18" height="18" fill="#b8582e"/>
  <text x="1058" y="198" font-size="13" font-weight="600">Équipe</text>
  <text x="1300" y="198" class="mono" font-size="12" fill="#1a1a1a">120 → 1 200</text>
  <text x="1460" y="198" font-size="11" font-weight="700" fill="#b8582e" text-anchor="end">×10</text>
  <rect x="1030" y="216" width="18" height="18" fill="#8fb0d6"/>
  <text x="1058" y="230" font-size="13" font-weight="600">Infra</text>
  <text x="1058" y="247" font-size="11" fill="#7a7a7a">compute warehouse</text>
  <text x="1300" y="230" class="mono" font-size="12" fill="#1a1a1a">40 → 620</text>
  <text x="1460" y="230" font-size="11" font-weight="700" fill="#3d5a82" text-anchor="end">dominant</text>
  <rect x="1030" y="260" width="18" height="18" fill="#2e7a7a"/>
  <text x="1058" y="274" font-size="13" font-weight="600">Data</text>
  <text x="1058" y="291" font-size="11" fill="#7a7a7a">sémantique + qualité</text>
  <text x="1300" y="274" class="mono" font-size="12" fill="#1a1a1a">60 → 420</text>
  <text x="1460" y="274" font-size="11" font-weight="700" fill="#2e7a7a" text-anchor="end">le chantier</text>
  <rect x="1030" y="304" width="18" height="18" fill="#a83232"/>
  <text x="1058" y="318" font-size="13" font-weight="600">Change</text>
  <text x="1300" y="318" class="mono" font-size="12" fill="#1a1a1a">10 → 380</text>
  <text x="1460" y="318" font-size="11" font-weight="700" fill="#a83232" text-anchor="end">apparaît</text>
  <rect x="1030" y="336" width="18" height="18" fill="#9a9a9a"/>
  <text x="1058" y="350" font-size="13" font-weight="600">Gouvernance</text>
  <text x="1300" y="350" class="mono" font-size="12" fill="#1a1a1a">30 → 320</text>
  <rect x="1030" y="368" width="18" height="18" fill="#5a8a6a"/>
  <text x="1058" y="382" font-size="13" font-weight="600">Sécurité</text>
  <text x="1300" y="382" class="mono" font-size="12" fill="#1a1a1a">20 → 260</text>
  <rect x="1030" y="400" width="18" height="18" fill="#3d5a82"/>
  <text x="1058" y="414" font-size="13" font-weight="600">Inférence</text>
  <text x="1300" y="414" class="mono" font-size="12" fill="#1a1a1a">8 → 280</text>
  <rect x="1030" y="432" width="18" height="18" fill="#d4a000"/>
  <text x="1058" y="446" font-size="13" font-weight="600">Évaluation</text>
  <text x="1300" y="446" class="mono" font-size="12" fill="#1a1a1a">10 → 200</text>
  <line x1="1030" y1="464" x2="1460" y2="464" stroke="#c5b9a3" stroke-width="0.8"/>
  <text x="1058" y="486" font-size="13" font-weight="700">Total</text>
  <text x="1300" y="486" class="mono" font-size="12" font-weight="700">298 → 3 680</text>

  <rect x="1030" y="516" width="430" height="124" fill="#e8f0ef" stroke="#2e7a7a" stroke-width="1.4" rx="8"/>
  <text x="1050" y="542" class="mono" font-size="12" font-weight="700" letter-spacing="0.12" fill="#2e7a7a">LE COMPUTE + LA DATA, DÈS LE DÉPART</text>
  <text x="1050" y="568" font-size="13" fill="#1a1a1a">Infra (compute warehouse) 40 → 620 : le self-serve</text>
  <text x="1050" y="588" font-size="13" fill="#1a1a1a">consomme à l'usage → FinOps. Data 60 → 420 :</text>
  <text x="1050" y="608" font-size="13" font-weight="600" fill="#2e7a7a">la couche sémantique EST le chantier (lourd dès le socle).</text>
  <text x="1050" y="628" font-size="12" font-style="italic" fill="#5a5a5a">l'inférence (text-to-SQL) reste un petit poste.</text>
  <rect x="1030" y="656" width="430" height="96" fill="#f5e6dc" stroke="#b8582e" stroke-width="1.4" rx="8"/>
  <text x="1050" y="682" class="mono" font-size="12" font-weight="700" letter-spacing="0.12" fill="#b8582e">UN ROI DIFFUS</text>
  <text x="1050" y="708" font-size="13" fill="#1a1a1a">Le coût/requête à valeur ÷30 (14 € → 0,45 €) non</text>
  <text x="1050" y="728" font-size="13" fill="#1a1a1a">par optimisation du modèle, mais par amortissement</text>
  <text x="1050" y="746" font-size="11" font-style="italic" fill="#7a3a1e">du socle sur les cas en aval (ch. 21.7).</text>

  <text x="60" y="860" font-size="13" font-style="italic" fill="#5a5a5a">
    Lecture : chaque colonne = 100 % du coût de sa phase ; sa largeur ∝ coût total. Le socle ne rend rien seul — il multiplie la valeur de tout ce qui le consomme.
  </text>
  <text x="60" y="888" font-size="12" font-style="italic" fill="#8a8a8a">
    Grille CC-03, en k€ · compute facturé à l'usage (FinOps) · la couche sémantique gouvernée est le poste data lourd dès le départ.
  </text>

</svg>
