<?xml version="1.0" encoding="UTF-8"?>
<svg xmlns="http://www.w3.org/2000/svg" viewBox="0 0 1200 800">
  <defs>
    <style>
      .display { font-family: 'Spectral', 'Playfair Display', Georgia, serif; }
      .body    { font-family: 'Inter', 'Helvetica Neue', system-ui, sans-serif; }
      .mono    { font-family: 'JetBrains Mono', 'IBM Plex Mono', monospace; }
    </style>
  </defs>

  <rect width="1200" height="800" fill="#FAF8F3"/>

  <!-- HEADER -->
  <text x="60" y="55" class="mono" font-size="11" font-weight="600" letter-spacing="0.12em" fill="#B7332C">SCHÉMA 06</text>
  <text x="60" y="92" class="display" font-size="26" font-weight="600" letter-spacing="-0.01em" fill="#1A1A1A">Cartographie vendeurs × familles d'attributs</text>
  <text x="60" y="118" class="display" font-size="16" font-style="italic" fill="#5A5A5A">État de la couverture <tspan class="mono" font-size="14">gen_ai.*</tspan> par les principaux émetteurs et récepteurs — mai 2026</text>
  <line x1="60" y1="140" x2="1140" y2="140" stroke="#E5E1D8" stroke-width="0.5"/>

  <!-- Column headers - 6 families -->
  <text x="60" y="180" class="mono" font-size="10" font-weight="600" letter-spacing="0.1em" fill="#5A5A5A">VENDEUR / SDK</text>

  <g font-family="Inter, sans-serif" font-size="9" font-weight="600" fill="#1A1A1A">
    <text x="365" y="180" text-anchor="middle">request</text>
    <text x="435" y="180" text-anchor="middle">response</text>
    <text x="505" y="180" text-anchor="middle">usage</text>
    <text x="575" y="180" text-anchor="middle">agent</text>
    <text x="645" y="180" text-anchor="middle">tool</text>
    <text x="715" y="180" text-anchor="middle">evaluation</text>
    <text x="790" y="180" text-anchor="middle">compaction</text>
  </g>

  <!-- Maturity badges row -->
  <g font-family="JetBrains Mono, monospace" font-size="7" font-weight="600" letter-spacing="0.08em">
    <rect x="340" y="186" width="50" height="13" rx="2" fill="#1F5560"/>
    <text x="365" y="195" text-anchor="middle" fill="#FAF8F3">STABLE</text>
    <rect x="410" y="186" width="50" height="13" rx="2" fill="#1F5560"/>
    <text x="435" y="195" text-anchor="middle" fill="#FAF8F3">STABLE</text>
    <rect x="480" y="186" width="50" height="13" rx="2" fill="#1F5560"/>
    <text x="505" y="195" text-anchor="middle" fill="#FAF8F3">STABLE</text>
    <rect x="550" y="186" width="50" height="13" rx="2" fill="#B58A2C"/>
    <text x="575" y="195" text-anchor="middle" fill="#FAF8F3">RC</text>
    <rect x="620" y="186" width="50" height="13" rx="2" fill="#B58A2C"/>
    <text x="645" y="195" text-anchor="middle" fill="#FAF8F3">RC</text>
    <rect x="690" y="186" width="50" height="13" rx="2" fill="#B58A2C"/>
    <text x="715" y="195" text-anchor="middle" fill="#FAF8F3">RC</text>
    <rect x="765" y="186" width="50" height="13" rx="2" fill="#B7332C"/>
    <text x="790" y="195" text-anchor="middle" fill="#FAF8F3">DRAFT</text>
  </g>

  <text x="900" y="180" class="mono" font-size="10" font-weight="600" letter-spacing="0.1em" fill="#5A5A5A">RÔLE</text>
  <text x="1080" y="180" class="mono" font-size="10" font-weight="600" letter-spacing="0.1em" fill="#5A5A5A">DEPUIS</text>

  <line x1="60" y1="210" x2="1140" y2="210" stroke="#5A5A5A" stroke-width="1"/>

  <!-- Helper: density circles -->
  <!-- Densité 0 = vide ; 25 = quart ; 50 = moitié ; 75 = trois-quarts ; 100 = plein. Carmine pour rempli. -->

  <!-- Rows: 10 vendors -->
  <!-- Row 1: Honeycomb -->
  <g>
    <text x="80" y="248" class="body" font-size="11" font-weight="500" fill="#1A1A1A">Honeycomb</text>
    <text x="80" y="263" class="body" font-size="9" font-style="italic" fill="#5A5A5A">évangéliste du SIG, retex public</text>
    <!-- 100/100/100/75/75/50/25 -->
    <circle cx="365" cy="252" r="9" fill="#B7332C"/>
    <circle cx="435" cy="252" r="9" fill="#B7332C"/>
    <circle cx="505" cy="252" r="9" fill="#B7332C"/>
    <circle cx="575" cy="252" r="9" fill="none" stroke="#B7332C" stroke-width="1.5"/>
    <path d="M575 261 A9 9 0 0 1 575 243 L575 252 Z" fill="#B7332C" transform="rotate(-90 575 252)"/>
    <circle cx="645" cy="252" r="9" fill="none" stroke="#B7332C" stroke-width="1.5"/>
    <path d="M645 261 A9 9 0 0 1 645 243 L645 252 Z" fill="#B7332C" transform="rotate(-90 645 252)"/>
    <circle cx="715" cy="252" r="9" fill="none" stroke="#B7332C" stroke-width="1.5"/>
    <path d="M715 252 m-9 0 a9 9 0 0 1 18 0 Z" fill="#B7332C"/>
    <circle cx="790" cy="252" r="9" fill="none" stroke="#B7332C" stroke-width="1.5"/>
    <text x="900" y="256" class="mono" font-size="9" fill="#1A1A1A">backend APM</text>
    <text x="1080" y="256" class="mono" font-size="9" fill="#1A1A1A">2024</text>
  </g>
  <line x1="60" y1="278" x2="1140" y2="278" stroke="#E5E1D8" stroke-width="0.5"/>

  <!-- Row 2: Datadog -->
  <g>
    <text x="80" y="298" class="body" font-size="11" font-weight="500" fill="#1A1A1A">Datadog LLM Observability</text>
    <text x="80" y="313" class="body" font-size="9" font-style="italic" fill="#5A5A5A">reçoit gen_ai.*, mappe sur llm.* legacy</text>
    <circle cx="365" cy="302" r="9" fill="#B7332C"/>
    <circle cx="435" cy="302" r="9" fill="#B7332C"/>
    <circle cx="505" cy="302" r="9" fill="#B7332C"/>
    <circle cx="575" cy="302" r="9" fill="none" stroke="#B7332C" stroke-width="1.5"/>
    <path d="M575 311 A9 9 0 0 1 575 293 L575 302 Z" fill="#B7332C" transform="rotate(-90 575 302)"/>
    <circle cx="645" cy="302" r="9" fill="none" stroke="#B7332C" stroke-width="1.5"/>
    <path d="M645 311 A9 9 0 0 1 645 293 L645 302 Z" fill="#B7332C" transform="rotate(-90 645 302)"/>
    <circle cx="715" cy="302" r="9" fill="none" stroke="#B7332C" stroke-width="1.5"/>
    <path d="M715 302 m-4.5 0 a4.5 4.5 0 0 1 9 0 Z" fill="#B7332C"/>
    <circle cx="790" cy="302" r="9" fill="none" stroke="#B7332C" stroke-width="1.5"/>
    <text x="900" y="306" class="mono" font-size="9" fill="#1A1A1A">backend APM</text>
    <text x="1080" y="306" class="mono" font-size="9" fill="#1A1A1A">2025</text>
  </g>
  <line x1="60" y1="328" x2="1140" y2="328" stroke="#E5E1D8" stroke-width="0.5"/>

  <!-- Row 3: New Relic -->
  <g>
    <text x="80" y="348" class="body" font-size="11" font-weight="500" fill="#1A1A1A">New Relic, Grafana, Dynatrace, Elastic</text>
    <text x="80" y="363" class="body" font-size="9" font-style="italic" fill="#5A5A5A">indexent gen_ai.* tel quel, dashboards GenAI fin 2025</text>
    <circle cx="365" cy="352" r="9" fill="#B7332C"/>
    <circle cx="435" cy="352" r="9" fill="#B7332C"/>
    <circle cx="505" cy="352" r="9" fill="#B7332C"/>
    <circle cx="575" cy="352" r="9" fill="none" stroke="#B7332C" stroke-width="1.5"/>
    <path d="M575 361 A9 9 0 0 1 575 343 L575 352 Z" fill="#B7332C" transform="rotate(-90 575 352)"/>
    <circle cx="645" cy="352" r="9" fill="none" stroke="#B7332C" stroke-width="1.5"/>
    <path d="M645 361 A9 9 0 0 1 645 343 L645 352 Z" fill="#B7332C" transform="rotate(-90 645 352)"/>
    <circle cx="715" cy="352" r="9" fill="none" stroke="#B7332C" stroke-width="1.5"/>
    <circle cx="790" cy="352" r="9" fill="none" stroke="#B7332C" stroke-width="1.5"/>
    <text x="900" y="356" class="mono" font-size="9" fill="#1A1A1A">backends APM</text>
    <text x="1080" y="356" class="mono" font-size="9" fill="#1A1A1A">2025</text>
  </g>
  <line x1="60" y1="378" x2="1140" y2="378" stroke="#E5E1D8" stroke-width="0.5"/>

  <!-- Row 4: Langfuse -->
  <g>
    <text x="80" y="398" class="body" font-size="11" font-weight="500" fill="#1A1A1A">Langfuse</text>
    <text x="80" y="413" class="body" font-size="9" font-style="italic" fill="#5A5A5A">émetteur SDK + récepteur, expérimentations compaction</text>
    <circle cx="365" cy="402" r="9" fill="#B7332C"/>
    <circle cx="435" cy="402" r="9" fill="#B7332C"/>
    <circle cx="505" cy="402" r="9" fill="#B7332C"/>
    <circle cx="575" cy="402" r="9" fill="#B7332C"/>
    <circle cx="645" cy="402" r="9" fill="#B7332C"/>
    <circle cx="715" cy="402" r="9" fill="#B7332C"/>
    <circle cx="790" cy="402" r="9" fill="none" stroke="#B7332C" stroke-width="1.5"/>
    <path d="M790 411 A9 9 0 0 1 790 393 L790 402 Z" fill="#B7332C" transform="rotate(-90 790 402)"/>
    <text x="900" y="406" class="mono" font-size="9" fill="#1A1A1A">spécialiste éval</text>
    <text x="1080" y="406" class="mono" font-size="9" fill="#1A1A1A">v3 fév. 2026</text>
  </g>
  <line x1="60" y1="428" x2="1140" y2="428" stroke="#E5E1D8" stroke-width="0.5"/>

  <!-- Row 5: Arize Phoenix -->
  <g>
    <text x="80" y="448" class="body" font-size="11" font-weight="500" fill="#1A1A1A">Arize Phoenix / OpenInference</text>
    <text x="80" y="463" class="body" font-size="9" font-style="italic" fill="#5A5A5A">convention concurrente absorbée, mapping bidirectionnel</text>
    <circle cx="365" cy="452" r="9" fill="#B7332C"/>
    <circle cx="435" cy="452" r="9" fill="#B7332C"/>
    <circle cx="505" cy="452" r="9" fill="#B7332C"/>
    <circle cx="575" cy="452" r="9" fill="#B7332C"/>
    <circle cx="645" cy="452" r="9" fill="#B7332C"/>
    <circle cx="715" cy="452" r="9" fill="#B7332C"/>
    <circle cx="790" cy="452" r="9" fill="none" stroke="#B7332C" stroke-width="1.5"/>
    <text x="900" y="456" class="mono" font-size="9" fill="#1A1A1A">spécialiste éval</text>
    <text x="1080" y="456" class="mono" font-size="9" fill="#1A1A1A">Phoenix 5</text>
  </g>
  <line x1="60" y1="478" x2="1140" y2="478" stroke="#E5E1D8" stroke-width="0.5"/>

  <!-- Row 6: OpenLLMetry -->
  <g>
    <text x="80" y="498" class="body" font-size="11" font-weight="500" fill="#1A1A1A">OpenLLMetry (Traceloop)</text>
    <text x="80" y="513" class="body" font-size="9" font-style="italic" fill="#5A5A5A">SDK open-source, auto-instrumente OpenAI, Anthropic, Cohere…</text>
    <circle cx="365" cy="502" r="9" fill="#B7332C"/>
    <circle cx="435" cy="502" r="9" fill="#B7332C"/>
    <circle cx="505" cy="502" r="9" fill="#B7332C"/>
    <circle cx="575" cy="502" r="9" fill="none" stroke="#B7332C" stroke-width="1.5"/>
    <path d="M575 511 A9 9 0 0 1 575 493 L575 502 Z" fill="#B7332C" transform="rotate(-90 575 502)"/>
    <circle cx="645" cy="502" r="9" fill="none" stroke="#B7332C" stroke-width="1.5"/>
    <path d="M645 511 A9 9 0 0 1 645 493 L645 502 Z" fill="#B7332C" transform="rotate(-90 645 502)"/>
    <circle cx="715" cy="502" r="9" fill="none" stroke="#B7332C" stroke-width="1.5"/>
    <circle cx="790" cy="502" r="9" fill="none" stroke="#B7332C" stroke-width="1.5"/>
    <text x="900" y="506" class="mono" font-size="9" fill="#1A1A1A">SDK émetteur</text>
    <text x="1080" y="506" class="mono" font-size="9" fill="#1A1A1A">fin 2025</text>
  </g>
  <line x1="60" y1="528" x2="1140" y2="528" stroke="#E5E1D8" stroke-width="0.5"/>

  <!-- Row 7: Anthropic Claude SDK -->
  <g class="interactive" data-card="anthropic-sdk" tabindex="0" role="button" aria-label="Anthropic Claude SDK">
    <text x="80" y="548" class="body" font-size="11" font-weight="500" fill="#1A1A1A">Anthropic SDK / Claude Agent SDK</text>
    <text x="80" y="563" class="body" font-size="9" font-style="italic" fill="#5A5A5A">émet gen_ai.* depuis Python SDK 0.45 (avril 2026)</text>
    <circle cx="365" cy="552" r="9" fill="#B7332C"/>
    <circle cx="435" cy="552" r="9" fill="#B7332C"/>
    <circle cx="505" cy="552" r="9" fill="#B7332C"/>
    <circle cx="575" cy="552" r="9" fill="none" stroke="#B7332C" stroke-width="1.5"/>
    <path d="M575 561 A9 9 0 0 1 575 543 L575 552 Z" fill="#B7332C" transform="rotate(-90 575 552)"/>
    <circle cx="645" cy="552" r="9" fill="none" stroke="#B7332C" stroke-width="1.5"/>
    <path d="M645 561 A9 9 0 0 1 645 543 L645 552 Z" fill="#B7332C" transform="rotate(-90 645 552)"/>
    <circle cx="715" cy="552" r="9" fill="none" stroke="#B7332C" stroke-width="1.5"/>
    <circle cx="790" cy="552" r="9" fill="none" stroke="#B7332C" stroke-width="1.5"/>
    <text x="900" y="556" class="mono" font-size="9" fill="#1A1A1A">SDK vendeur LLM</text>
    <text x="1080" y="556" class="mono" font-size="9" fill="#1A1A1A">avr. 2026</text>
  </g>
  <line x1="60" y1="578" x2="1140" y2="578" stroke="#E5E1D8" stroke-width="0.5"/>

  <!-- Row 8: OpenAI SDK -->
  <g>
    <text x="80" y="598" class="body" font-size="11" font-weight="500" fill="#1A1A1A">OpenAI Python SDK</text>
    <text x="80" y="613" class="body" font-size="9" font-style="italic" fill="#5A5A5A">via wrapper communautaire, pas natif côté SDK officiel</text>
    <circle cx="365" cy="602" r="9" fill="#B7332C"/>
    <circle cx="435" cy="602" r="9" fill="#B7332C"/>
    <circle cx="505" cy="602" r="9" fill="#B7332C"/>
    <circle cx="575" cy="602" r="9" fill="none" stroke="#B7332C" stroke-width="1.5"/>
    <path d="M575 602 m-4.5 0 a4.5 4.5 0 0 1 9 0 Z" fill="#B7332C"/>
    <circle cx="645" cy="602" r="9" fill="none" stroke="#B7332C" stroke-width="1.5"/>
    <path d="M645 602 m-4.5 0 a4.5 4.5 0 0 1 9 0 Z" fill="#B7332C"/>
    <circle cx="715" cy="602" r="9" fill="none" stroke="#B7332C" stroke-width="1.5"/>
    <circle cx="790" cy="602" r="9" fill="none" stroke="#B7332C" stroke-width="1.5"/>
    <text x="900" y="606" class="mono" font-size="9" fill="#1A1A1A">SDK vendeur LLM</text>
    <text x="1080" y="606" class="mono" font-size="9" fill="#1A1A1A">via wrapper</text>
  </g>
  <line x1="60" y1="628" x2="1140" y2="628" stroke="#E5E1D8" stroke-width="0.5"/>

  <!-- Row 9: Azure AI Foundry -->
  <g>
    <text x="80" y="648" class="body" font-size="11" font-weight="500" fill="#1A1A1A">Microsoft Azure AI Foundry</text>
    <text x="80" y="663" class="body" font-size="9" font-style="italic" fill="#5A5A5A">premier hyperscaler natif gen_ai.*, GA été 2025</text>
    <circle cx="365" cy="652" r="9" fill="#B7332C"/>
    <circle cx="435" cy="652" r="9" fill="#B7332C"/>
    <circle cx="505" cy="652" r="9" fill="#B7332C"/>
    <circle cx="575" cy="652" r="9" fill="#B7332C"/>
    <circle cx="645" cy="652" r="9" fill="#B7332C"/>
    <circle cx="715" cy="652" r="9" fill="none" stroke="#B7332C" stroke-width="1.5"/>
    <path d="M715 661 A9 9 0 0 1 715 643 L715 652 Z" fill="#B7332C" transform="rotate(-90 715 652)"/>
    <circle cx="790" cy="652" r="9" fill="none" stroke="#B7332C" stroke-width="1.5"/>
    <text x="900" y="656" class="mono" font-size="9" fill="#1A1A1A">plateforme cloud</text>
    <text x="1080" y="656" class="mono" font-size="9" fill="#1A1A1A">été 2025</text>
  </g>
  <line x1="60" y1="678" x2="1140" y2="678" stroke="#E5E1D8" stroke-width="0.5"/>

  <!-- Row 10: Google Vertex AI -->
  <g>
    <text x="80" y="698" class="body" font-size="11" font-weight="500" fill="#1A1A1A">Google Vertex AI + ADK</text>
    <text x="80" y="713" class="body" font-size="9" font-style="italic" fill="#5A5A5A">émet via google-cloud-trace, intégré Agent Engine</text>
    <circle cx="365" cy="702" r="9" fill="#B7332C"/>
    <circle cx="435" cy="702" r="9" fill="#B7332C"/>
    <circle cx="505" cy="702" r="9" fill="#B7332C"/>
    <circle cx="575" cy="702" r="9" fill="#B7332C"/>
    <circle cx="645" cy="702" r="9" fill="#B7332C"/>
    <circle cx="715" cy="702" r="9" fill="none" stroke="#B7332C" stroke-width="1.5"/>
    <path d="M715 711 A9 9 0 0 1 715 693 L715 702 Z" fill="#B7332C" transform="rotate(-90 715 702)"/>
    <circle cx="790" cy="702" r="9" fill="none" stroke="#B7332C" stroke-width="1.5"/>
    <text x="900" y="706" class="mono" font-size="9" fill="#1A1A1A">plateforme cloud</text>
    <text x="1080" y="706" class="mono" font-size="9" fill="#1A1A1A">2026</text>
  </g>
  <line x1="60" y1="728" x2="1140" y2="728" stroke="#5A5A5A" stroke-width="1"/>

  <!-- Legend -->
  <g>
    <text x="60" y="755" class="body" font-size="9" font-weight="600" fill="#5A5A5A">DENSITÉ :</text>
    <circle cx="125" cy="752" r="9" fill="none" stroke="#B7332C" stroke-width="1.5"/>
    <text x="138" y="756" class="body" font-size="9" fill="#5A5A5A">aucun</text>
    <circle cx="175" cy="752" r="9" fill="none" stroke="#B7332C" stroke-width="1.5"/>
    <path d="M175 752 m-4.5 0 a4.5 4.5 0 0 1 9 0 Z" fill="#B7332C"/>
    <text x="188" y="756" class="body" font-size="9" font-style="italic" fill="#5A5A5A">partiel</text>
    <circle cx="230" cy="752" r="9" fill="none" stroke="#B7332C" stroke-width="1.5"/>
    <path d="M230 761 A9 9 0 0 1 230 743 L230 752 Z" fill="#B7332C" transform="rotate(-90 230 752)"/>
    <text x="243" y="756" class="body" font-size="9" font-style="italic" fill="#5A5A5A">moitié</text>
    <circle cx="285" cy="752" r="9" fill="#B7332C"/>
    <text x="298" y="756" class="body" font-size="9" font-style="italic" fill="#5A5A5A">complet</text>
  </g>

  <text x="60" y="780" class="body" font-size="10" font-style="italic" fill="#5A5A5A">Source : revue des SDK & docs vendeurs en mai 2026. Lecture : la fracture n'est pas vendeur×vendeur, mais couche stable contre couches RC/draft.</text>
</svg>
