<svg xmlns="http://www.w3.org/2000/svg" viewBox="0 0 1500 1000"
     font-family="Inter, system-ui, sans-serif" fill="#1a1a1a">
  <style>
    .display { font-family: 'Fraunces', Georgia, serif; }
    .mono    { font-family: 'JetBrains Mono', ui-monospace, monospace; }
  </style>

  <rect width="1500" height="1000" fill="#faf6ec"/>

  <!-- HEADER -->
  <text x="60" y="52" font-size="28" font-weight="600" letter-spacing="-0.5">
    Huit postes sur quatre phases — l'inférence est une licence par tête
  </text>
  <text x="60" y="86" class="display" font-size="18" font-style="italic" fill="#5a5a5a">
    Largeur de chaque colonne ∝ coût total de la phase (k€), hauteur de chaque bloc = part du poste. Le change et la gouvernance dominent.
  </text>

  <text x="101" y="184" class="mono" font-size="13" font-weight="700" text-anchor="middle">164</text>
  <text x="172" y="184" class="mono" font-size="13" font-weight="700" text-anchor="middle">700</text>
  <text x="401" y="184" class="mono" font-size="15" font-weight="700" text-anchor="middle">2 510 k€</text>
  <text x="747" y="184" class="mono" font-size="15" font-weight="700" text-anchor="middle">2 410 k€</text>

  <rect x="90" y="456.1" width="22" height="243.9" fill="#b8582e"/>
  <rect x="90" y="401.2" width="22" height="54.9" fill="#3d5a82"/>
  <rect x="90" y="389" width="22" height="12.2" fill="#8fb0d6"/>
  <rect x="90" y="297.6" width="22" height="91.5" fill="#a83232"/>
  <rect x="90" y="285.4" width="22" height="12.2" fill="#d4a000"/>
  <rect x="90" y="254.9" width="22" height="30.5" fill="#2e7a7a"/>
  <rect x="90" y="230.5" width="22" height="24.4" fill="#5a8a6a"/>
  <rect x="90" y="200" width="22" height="30.5" fill="#9a9a9a"/>
  <rect x="90" y="200" width="22" height="500" fill="none" stroke="#c5b9a3" stroke-width="1"/>
  <rect x="124" y="542.9" width="95" height="157.1" fill="#b8582e"/>
  <rect x="124" y="442.9" width="95" height="100" fill="#3d5a82"/>
  <rect x="124" y="435.7" width="95" height="7.1" fill="#8fb0d6"/>
  <rect x="124" y="307.1" width="95" height="128.6" fill="#a83232"/>
  <rect x="124" y="292.9" width="95" height="14.3" fill="#d4a000"/>
  <rect x="124" y="264.3" width="95" height="28.6" fill="#2e7a7a"/>
  <rect x="124" y="235.7" width="95" height="28.6" fill="#5a8a6a"/>
  <rect x="124" y="200" width="95" height="35.7" fill="#9a9a9a"/>
  <rect x="124" y="200" width="95" height="500" fill="none" stroke="#c5b9a3" stroke-width="1"/>
  <text x="171.5" y="625.4" font-size="12" font-weight="600" fill="#ffffff" text-anchor="middle">Équipe 31%</text>
  <text x="171.5" y="496.9" font-size="12" font-weight="600" fill="#ffffff" text-anchor="middle">Inférence 20%</text>
  <text x="171.5" y="375.4" font-size="12" font-weight="600" fill="#ffffff" text-anchor="middle">Change 26%</text>
  <text x="171.5" y="221.9" font-size="11" font-weight="400" fill="#ffffff" text-anchor="middle">Gouvernance 7%</text>
  <rect x="231" y="616.3" width="340" height="83.7" fill="#b8582e"/>
  <rect x="231" y="397.2" width="340" height="219.1" fill="#3d5a82"/>
  <rect x="231" y="391.2" width="340" height="6" fill="#8fb0d6"/>
  <rect x="231" y="287.6" width="340" height="103.6" fill="#a83232"/>
  <rect x="231" y="275.7" width="340" height="12" fill="#d4a000"/>
  <rect x="231" y="257.8" width="340" height="17.9" fill="#2e7a7a"/>
  <rect x="231" y="231.9" width="340" height="25.9" fill="#5a8a6a"/>
  <rect x="231" y="200" width="340" height="31.9" fill="#9a9a9a"/>
  <rect x="231" y="200" width="340" height="500" fill="none" stroke="#c5b9a3" stroke-width="1"/>
  <text x="401" y="662.2" font-size="12" font-weight="600" fill="#ffffff" text-anchor="middle">Équipe 17%</text>
  <text x="401" y="510.8" font-size="12" font-weight="600" fill="#ffffff" text-anchor="middle">Inférence 44%</text>
  <text x="401" y="343.4" font-size="12" font-weight="600" fill="#ffffff" text-anchor="middle">Change 21%</text>
  <text x="401" y="219.9" font-size="11" font-weight="400" fill="#ffffff" text-anchor="middle">Gouvernance 6%</text>
  <rect x="583" y="621.2" width="327" height="78.8" fill="#b8582e"/>
  <rect x="583" y="417.8" width="327" height="203.3" fill="#3d5a82"/>
  <rect x="583" y="407.5" width="327" height="10.4" fill="#8fb0d6"/>
  <rect x="583" y="307.9" width="327" height="99.6" fill="#a83232"/>
  <rect x="583" y="289.2" width="327" height="18.7" fill="#d4a000"/>
  <rect x="583" y="272.6" width="327" height="16.6" fill="#2e7a7a"/>
  <rect x="583" y="241.5" width="327" height="31.1" fill="#5a8a6a"/>
  <rect x="583" y="200" width="327" height="41.5" fill="#9a9a9a"/>
  <rect x="583" y="200" width="327" height="500" fill="none" stroke="#c5b9a3" stroke-width="1"/>
  <text x="746.5" y="664.6" font-size="12" font-weight="600" fill="#ffffff" text-anchor="middle">Équipe 16%</text>
  <text x="746.5" y="523.5" font-size="12" font-weight="600" fill="#ffffff" text-anchor="middle">Inférence 41%</text>
  <text x="746.5" y="361.7" font-size="12" font-weight="600" fill="#ffffff" text-anchor="middle">Change 20%</text>
  <text x="746.5" y="261.1" font-size="11" font-weight="400" fill="#ffffff" text-anchor="middle">Sécurité 6%</text>
  <text x="746.5" y="224.7" font-size="11" font-weight="400" fill="#ffffff" text-anchor="middle">Gouvernance 8%</text>

  <line x1="90" y1="700" x2="910" y2="700" stroke="#1a1a1a" stroke-width="1.6"/>
  <text x="101" y="722" font-size="13" font-weight="600" text-anchor="middle">Amorçage</text>
  <text x="172" y="722" font-size="13" font-weight="600" text-anchor="middle">Cadrage</text>
  <text x="401" y="722" font-size="14" font-weight="600" text-anchor="middle">Généralisation</text>
  <text x="747" y="722" font-size="14" font-weight="600" text-anchor="middle">Régime</text>

  <text x="60" y="746" class="mono" font-size="11" font-weight="700" letter-spacing="0.08" fill="#3d5a82">SIÈGES DÉPLOYÉS</text>
  <rect x="75" y="752" width="52" height="24" fill="#eef2f8" stroke="#3d5a82" stroke-width="1.2" rx="12"/>
  <text x="101" y="769" class="mono" font-size="12" font-weight="700" fill="#3d5a82" text-anchor="middle">200</text>
  <rect x="146" y="752" width="52" height="24" fill="#eef2f8" stroke="#3d5a82" stroke-width="1.2" rx="12"/>
  <text x="172" y="769" class="mono" font-size="12" font-weight="700" fill="#3d5a82" text-anchor="middle">1 500</text>
  <rect x="375" y="752" width="52" height="24" fill="#eef2f8" stroke="#3d5a82" stroke-width="1.2" rx="12"/>
  <text x="401" y="769" class="mono" font-size="12" font-weight="700" fill="#3d5a82" text-anchor="middle">9 200</text>
  <rect x="721" y="752" width="52" height="24" fill="#3d5a82" stroke="#3d5a82" stroke-width="1.2" rx="12"/>
  <text x="747" y="769" class="mono" font-size="12" font-weight="700" style="fill:#ffffff" text-anchor="middle">9 200</text>
  <text x="90" y="794" font-size="11" font-weight="700" fill="#b8582e">seuil d'usage cadré ≈ 40 % : au-delà, l'enablement s'amortit — le siège seul ne crée rien</text>

  <text x="1030" y="160" class="mono" font-size="12" font-weight="700" letter-spacing="0.14" fill="#5a5a5a">POSTE — TRAJECTOIRE POC → SCALE (k€)</text>
  <rect x="1030" y="184" width="18" height="18" fill="#b8582e"/>
  <text x="1058" y="198" font-size="13" font-weight="600">Équipe</text>
  <text x="1300" y="198" class="mono" font-size="12" fill="#1a1a1a">80 → 380</text>
  <text x="1460" y="198" font-size="11" font-weight="700" fill="#b8582e" text-anchor="end">cœur stable</text>
  <rect x="1030" y="216" width="18" height="18" fill="#3d5a82"/>
  <text x="1058" y="230" font-size="13" font-weight="600">Inférence</text>
  <text x="1058" y="247" font-size="11" fill="#7a7a7a">licence/siège · pic 1100</text>
  <text x="1300" y="230" class="mono" font-size="12" fill="#1a1a1a">18 → 980</text>
  <text x="1460" y="230" font-size="11" font-weight="700" fill="#3d5a82" text-anchor="end">coût fixe</text>
  <rect x="1030" y="260" width="18" height="18" fill="#a83232"/>
  <text x="1058" y="274" font-size="13" font-weight="600">Change</text>
  <text x="1058" y="291" font-size="11" fill="#7a7a7a">enablement, champions</text>
  <text x="1300" y="274" class="mono" font-size="12" fill="#1a1a1a">30 → 520</text>
  <text x="1460" y="274" font-size="11" font-weight="700" fill="#a83232" text-anchor="end">poste dominant</text>
  <rect x="1030" y="304" width="18" height="18" fill="#9a9a9a"/>
  <text x="1058" y="318" font-size="13" font-weight="600">Gouvernance</text>
  <text x="1300" y="318" class="mono" font-size="12" fill="#1a1a1a">10 → 200</text>
  <text x="1460" y="318" font-size="11" font-weight="700" fill="#8a6500" text-anchor="end">shadow AI</text>
  <rect x="1030" y="336" width="18" height="18" fill="#5a8a6a"/>
  <text x="1058" y="350" font-size="13" font-weight="600">Sécurité</text>
  <text x="1300" y="350" class="mono" font-size="12" fill="#1a1a1a">8 → 150</text>
  <rect x="1030" y="368" width="18" height="18" fill="#2e7a7a"/>
  <text x="1058" y="382" font-size="13" font-weight="600">Data</text>
  <text x="1300" y="382" class="mono" font-size="12" fill="#1a1a1a">10 → 80</text>
  <rect x="1030" y="400" width="18" height="18" fill="#d4a000"/>
  <text x="1058" y="414" font-size="13" font-weight="600">Évaluation</text>
  <text x="1300" y="414" class="mono" font-size="12" fill="#1a1a1a">4 → 90</text>
  <rect x="1030" y="432" width="18" height="18" fill="#8fb0d6"/>
  <text x="1058" y="446" font-size="13" font-weight="600">Infra</text>
  <text x="1300" y="446" class="mono" font-size="12" fill="#1a1a1a">4 → 50</text>
  <line x1="1030" y1="464" x2="1460" y2="464" stroke="#c5b9a3" stroke-width="0.8"/>
  <text x="1058" y="486" font-size="13" font-weight="700">Total</text>
  <text x="1300" y="486" class="mono" font-size="12" font-weight="700">164 → 2 410</text>

  <rect x="1030" y="516" width="430" height="124" fill="#eef2f8" stroke="#3d5a82" stroke-width="1.4" rx="8"/>
  <text x="1050" y="542" class="mono" font-size="12" font-weight="700" letter-spacing="0.12" fill="#3d5a82">PAS D'ÉCONOMIE D'ÉCHELLE</text>
  <text x="1050" y="568" font-size="13" fill="#1a1a1a">L'inférence = des licences par tête. Ajouter un</text>
  <text x="1050" y="588" font-size="13" fill="#1a1a1a">siège ajoute son coût plein. Elle ne baisse en</text>
  <text x="1050" y="608" font-size="13" fill="#1a1a1a">Régime que par DÉSABONNEMENT des dormants</text>
  <text x="1050" y="628" font-size="13" font-weight="600" fill="#3d5a82">(1 100 → 980) et segmentation premium.</text>
  <rect x="1030" y="656" width="430" height="96" fill="#f5e6dc" stroke="#b8582e" stroke-width="1.4" rx="8"/>
  <text x="1050" y="682" class="mono" font-size="12" font-weight="700" letter-spacing="0.12" fill="#b8582e">LE PARADOXE AGENTIQUE — HORIZONTAL</text>
  <text x="1050" y="708" font-size="13" fill="#1a1a1a">Change 30 → 520 : le poste qui CRÉE la valeur</text>
  <text x="1050" y="728" font-size="13" fill="#1a1a1a">(cadrer l'usage humain) est le plus dur à attribuer</text>
  <text x="1050" y="746" font-size="11" font-style="italic" fill="#7a3a1e">(ch. 21.7).</text>

  <text x="60" y="860" font-size="13" font-style="italic" fill="#5a5a5a">
    Lecture : chaque colonne = 100 % du coût de sa phase ; sa largeur ∝ coût total. Le « coût par usage à valeur » (prose) divise par ~13 par montée du taux d'usage cadré.
  </text>
  <text x="60" y="888" font-size="12" font-style="italic" fill="#8a8a8a">
    Grille CC-00, en k€ · le siège est un coût fixe par tête : le seul levier de ROI est l'usage cadré, pas le nombre de sièges.
  </text>

</svg>
