<svg xmlns="http://www.w3.org/2000/svg" viewBox="0 0 1600 1130"
     font-family="Inter, system-ui, sans-serif" fill="#1a1a1a">
  <style>
    .display { font-family: 'Fraunces', Georgia, serif; }
    .body    { font-family: 'Inter', system-ui, sans-serif; }
    .mono    { font-family: 'JetBrains Mono', ui-monospace, monospace; }
    text { fill: #1a1a1a; }
  </style>

  <!-- ═════ BACKGROUND ═════ -->
  <rect width="1600" height="1130" fill="#faf6ec"/>

  <!-- ═════ HEADER ═════ -->
  <text x="60" y="58" font-size="32" font-weight="600" letter-spacing="-0.5">
    Architecture SI actuelle — banque retail mid-tier 2026
  </text>
  <text x="60" y="96" class="display" font-size="20" font-style="italic" fill="#5a5a5a">
    Avant copilot. Ce que la carte révèle : où le futur copilot pourra lire, écrire, et ce qu'il ne touchera jamais.
  </text>

  <!-- ═════ ZONES (halos réseau) ═════ -->

  <!-- Zone Cloud Azure (datamart + CRM + scoring) -->
  <rect x="280" y="170" width="900" height="370" fill="#eef2f8" stroke="#6f8db4" stroke-width="1.4" stroke-dasharray="8 4" rx="14"/>
  <text x="298" y="198" class="mono" font-size="13" font-weight="600" letter-spacing="0.18" fill="#3d5a82">CLOUD AZURE — RÉGION FRANCE CENTRAL</text>

  <!-- Zone Microsoft 365 / Identités (droite haut) -->
  <rect x="1210" y="170" width="350" height="370" fill="#f0f4ec" stroke="#7a9a5e" stroke-width="1.4" stroke-dasharray="8 4" rx="14"/>
  <text x="1228" y="198" class="mono" font-size="13" font-weight="600" letter-spacing="0.18" fill="#4d6635">MICROSOFT 365 + IDENTITÉS</text>

  <!-- Zone On-premise legacy (centre-bas) -->
  <rect x="280" y="590" width="900" height="380" fill="#f9f3eb" stroke="#b89370" stroke-width="1.4" stroke-dasharray="8 4" rx="14"/>
  <text x="298" y="618" class="mono" font-size="13" font-weight="600" letter-spacing="0.18" fill="#7a5a3a">DATACENTER ON-PREMISE — LEGACY</text>

  <!-- Zone Cloud opérations (droite bas) -->
  <rect x="1210" y="590" width="350" height="380" fill="#eef2f8" stroke="#6f8db4" stroke-width="1.4" stroke-dasharray="8 4" rx="14"/>
  <text x="1228" y="618" class="mono" font-size="13" font-weight="600" letter-spacing="0.18" fill="#3d5a82">CLOUD OPÉRATIONS &amp; REPORTING</text>

  <!-- ═════ USER (gauche, hors zone, c'est l'humain) ═════ -->
  <g>
    <!-- silhouette : tête + buste -->
    <circle cx="150" cy="220" r="22" fill="#ffffff" stroke="#5a5a5a" stroke-width="1.6"/>
    <path d="M 110 290 C 110 254, 134 246, 150 246 C 166 246, 190 254, 190 290 Z" fill="#ffffff" stroke="#5a5a5a" stroke-width="1.6"/>
    <text x="80" y="328" font-size="15" font-weight="600" fill="#1a1a1a">Conseiller</text>
    <text x="80" y="350" font-size="13" fill="#5a5a5a">Poste Windows + Edge</text>
    <text x="80" y="368" font-size="13" fill="#5a5a5a">Office 365 desktop</text>
    <text x="80" y="386" font-size="13" fill="#5a5a5a">MFA hardware key</text>
  </g>

  <!-- ═════ SYSTÈMES CLOUD AZURE ═════ -->

  <!-- Salesforce FSC — système central (épicentre du copilot futur) -->
  <g>
    <rect x="540" y="230" width="380" height="148" fill="#ffffff" stroke="#b8582e" stroke-width="2.2" rx="8"/>
    <text x="558" y="258" class="mono" font-size="11" font-weight="600" letter-spacing="0.16" fill="#b8582e">SaaS · CLOUD AZURE</text>
    <text x="558" y="288" font-size="18" font-weight="600">Salesforce Financial Services Cloud</text>
    <text x="558" y="312" font-size="13" fill="#5a5a5a">CRM principal · fiche client 360 · RDV · KYC</text>
    <text x="558" y="330" font-size="13" fill="#5a5a5a">Custom Lightning components produits crédit</text>
    <text x="558" y="348" font-size="13" fill="#5a5a5a">Scopes par grade (junior / senior / manager)</text>
    <!-- badge criticité -->
    <rect x="784" y="246" width="118" height="22" fill="#f5e6dc" stroke="#b8582e" rx="3"/>
    <text x="794" y="261" class="mono" font-size="10" font-weight="700" fill="#b8582e">R+W (proxy)</text>
  </g>

  <!-- Snowflake datamart -->
  <g>
    <rect x="310" y="420" width="240" height="100" fill="#ffffff" stroke="#2e7a7a" stroke-width="1.6" rx="8"/>
    <text x="326" y="446" class="mono" font-size="11" font-weight="600" letter-spacing="0.16" fill="#2e7a7a">SaaS · CLOUD AZURE</text>
    <text x="326" y="472" font-size="16" font-weight="600">Snowflake</text>
    <text x="326" y="490" font-size="13" fill="#5a5a5a">Datamart cloud</text>
    <text x="326" y="508" font-size="13" fill="#5a5a5a">Mirror nuit du core</text>
    <rect x="468" y="430" width="68" height="22" fill="#e8f0ef" stroke="#2e7a7a" rx="3"/>
    <text x="478" y="445" class="mono" font-size="10" font-weight="700" fill="#2e7a7a">READ</text>
  </g>

  <!-- Pega Decisioning -->
  <g>
    <rect x="580" y="420" width="240" height="100" fill="#ffffff" stroke="#2e7a7a" stroke-width="1.6" rx="8"/>
    <text x="596" y="446" class="mono" font-size="11" font-weight="600" letter-spacing="0.16" fill="#2e7a7a">SaaS · API REST</text>
    <text x="596" y="472" font-size="16" font-weight="600">Pega Decisioning</text>
    <text x="596" y="490" font-size="13" fill="#5a5a5a">Scoring crédit</text>
    <text x="596" y="508" font-size="13" fill="#5a5a5a">temps réel</text>
    <rect x="738" y="430" width="68" height="22" fill="#e8f0ef" stroke="#2e7a7a" rx="3"/>
    <text x="748" y="445" class="mono" font-size="10" font-weight="700" fill="#2e7a7a">READ</text>
  </g>

  <!-- (espace réservé droite Cloud Azure — vide pour respiration visuelle) -->

  <!-- ═════ SYSTÈMES MICROSOFT 365 / IDENTITÉS ═════ -->

  <!-- IAM Azure AD -->
  <g>
    <rect x="1240" y="230" width="290" height="92" fill="#ffffff" stroke="#7a9a5e" stroke-width="1.6" rx="8"/>
    <text x="1256" y="256" class="mono" font-size="11" font-weight="600" letter-spacing="0.16" fill="#4d6635">SaaS · IDENTITÉ</text>
    <text x="1256" y="282" font-size="16" font-weight="600">Azure AD</text>
    <text x="1256" y="302" font-size="13" fill="#5a5a5a">Conditional Access · MFA</text>
    <rect x="1456" y="240" width="68" height="22" fill="#e8f0ef" stroke="#2e7a7a" rx="3"/>
    <text x="1466" y="255" class="mono" font-size="10" font-weight="700" fill="#2e7a7a">SSO</text>
  </g>

  <!-- SharePoint Online -->
  <g>
    <rect x="1240" y="350" width="290" height="92" fill="#ffffff" stroke="#7a9a5e" stroke-width="1.6" rx="8"/>
    <text x="1256" y="376" class="mono" font-size="11" font-weight="600" letter-spacing="0.16" fill="#4d6635">SaaS · M365</text>
    <text x="1256" y="402" font-size="16" font-weight="600">SharePoint Online</text>
    <text x="1256" y="422" font-size="13" fill="#5a5a5a">Guides commerciaux · FAQ</text>
    <rect x="1456" y="360" width="68" height="22" fill="#e8f0ef" stroke="#2e7a7a" rx="3"/>
    <text x="1466" y="375" class="mono" font-size="10" font-weight="700" fill="#2e7a7a">READ</text>
  </g>

  <!-- Confluence -->
  <g>
    <rect x="1240" y="450" width="290" height="78" fill="#ffffff" stroke="#7a9a5e" stroke-width="1.6" rx="8"/>
    <text x="1256" y="476" class="mono" font-size="11" font-weight="600" letter-spacing="0.16" fill="#4d6635">SaaS · COLLAB</text>
    <text x="1256" y="502" font-size="16" font-weight="600">Confluence</text>
    <text x="1256" y="520" font-size="13" fill="#5a5a5a">Procédures opérationnelles</text>
    <rect x="1456" y="460" width="68" height="22" fill="#e8f0ef" stroke="#2e7a7a" rx="3"/>
    <text x="1466" y="475" class="mono" font-size="10" font-weight="700" fill="#2e7a7a">READ</text>
  </g>

  <!-- ═════ SYSTÈMES ON-PREMISE LEGACY ═════ -->

  <!-- Mainframe IBM z/OS — gros, central, ROUGE pas-touche -->
  <g>
    <rect x="310" y="650" width="320" height="280" fill="#fbf2f2" stroke="#a83232" stroke-width="2.2" rx="8"/>
    <!-- décoration "rack" visuelle : 6 fines horizontales -->
    <line x1="335" y1="704" x2="610" y2="704" stroke="#a83232" stroke-width="0.8" opacity="0.4"/>
    <line x1="335" y1="724" x2="610" y2="724" stroke="#a83232" stroke-width="0.8" opacity="0.4"/>
    <line x1="335" y1="744" x2="610" y2="744" stroke="#a83232" stroke-width="0.8" opacity="0.4"/>
    <line x1="335" y1="774" x2="610" y2="774" stroke="#a83232" stroke-width="0.8" opacity="0.4"/>
    <line x1="335" y1="794" x2="610" y2="794" stroke="#a83232" stroke-width="0.8" opacity="0.4"/>
    <text x="330" y="678" class="mono" font-size="11" font-weight="700" letter-spacing="0.18" fill="#a83232">MAINFRAME · ON-PREM · z/OS COBOL</text>
    <text x="330" y="822" font-size="20" font-weight="600" fill="#a83232">Core banking</text>
    <text x="330" y="848" font-size="13" fill="#5a5a5a">Décision crédit OFFICIELLE — humaine</text>
    <text x="330" y="868" font-size="13" fill="#5a5a5a">Comptes, ordres, journal opérations</text>
    <text x="330" y="888" font-size="13" fill="#5a5a5a">15 ans de doctrine fonctionnelle</text>
    <text x="330" y="916" font-size="13" font-style="italic" fill="#a83232">→ Aucun tool MCP ne sera jamais exposé</text>
    <!-- badge BLOCK -->
    <rect x="498" y="664" width="118" height="24" fill="#f4dcdc" stroke="#a83232" stroke-width="1.4" rx="3"/>
    <text x="508" y="680" class="mono" font-size="10" font-weight="700" letter-spacing="0.12" fill="#a83232">PAS TOUCHE</text>
  </g>

  <!-- Middleware Tibco / MQ -->
  <g>
    <rect x="660" y="650" width="220" height="160" fill="#ffffff" stroke="#b89370" stroke-width="1.6" rx="8"/>
    <text x="676" y="678" class="mono" font-size="11" font-weight="600" letter-spacing="0.16" fill="#7a5a3a">ON-PREM · ESB</text>
    <text x="676" y="710" font-size="16" font-weight="600">Tibco / MQ</text>
    <text x="676" y="730" font-size="13" fill="#5a5a5a">Middleware ESB</text>
    <text x="676" y="748" font-size="13" fill="#5a5a5a">APIs WS-SOAP legacy</text>
    <text x="676" y="766" font-size="13" fill="#5a5a5a">exposées vers le cloud</text>
    <text x="676" y="794" font-size="12" font-style="italic" fill="#7a5a3a">Couche d'intégration historique</text>
  </g>

  <!-- Documentum DMS — SCLEROSANT -->
  <g>
    <rect x="910" y="650" width="250" height="280" fill="#fff8e8" stroke="#d4a000" stroke-width="1.8" stroke-dasharray="6 3" rx="8"/>
    <text x="926" y="678" class="mono" font-size="11" font-weight="700" letter-spacing="0.18" fill="#8a6500">ON-PREM · DMS LEGACY</text>
    <text x="926" y="710" font-size="18" font-weight="600">Documentum</text>
    <text x="926" y="734" font-size="13" fill="#5a5a5a">DMS doctrine DDA</text>
    <text x="926" y="752" font-size="13" fill="#5a5a5a">Circulaires conformité</text>
    <text x="926" y="770" font-size="13" fill="#5a5a5a">Taux off, exceptions</text>
    <text x="926" y="796" font-size="13" fill="#5a5a5a">API SOAP propriétaire</text>
    <text x="926" y="814" font-size="13" fill="#5a5a5a">Permissions granulaires</text>
    <text x="926" y="848" font-size="13" font-weight="600" fill="#8a6500">⚠ Sclérosant projet</text>
    <text x="926" y="866" font-size="13" fill="#8a6500">MCP wrapper custom</text>
    <text x="926" y="884" font-size="13" fill="#8a6500">obligatoire : 3 semaines</text>
    <text x="926" y="902" font-size="13" fill="#8a6500">+ data prep corpus DDA :</text>
    <text x="926" y="920" font-size="13" fill="#8a6500">≈ 1 mois supplémentaire</text>
  </g>

  <!-- ═════ SYSTÈMES BACK-OFFICE & REPORTING ═════ -->

  <!-- ServiceNow -->
  <g>
    <rect x="1240" y="650" width="290" height="106" fill="#ffffff" stroke="#b8582e" stroke-width="1.6" rx="8"/>
    <text x="1256" y="676" class="mono" font-size="11" font-weight="600" letter-spacing="0.16" fill="#b8582e">SaaS · ITSM</text>
    <text x="1256" y="702" font-size="16" font-weight="600">ServiceNow</text>
    <text x="1256" y="722" font-size="13" fill="#5a5a5a">Tickets back-office</text>
    <text x="1256" y="740" font-size="13" fill="#5a5a5a">post-RDV (pièces manquantes)</text>
    <rect x="1456" y="660" width="78" height="22" fill="#f5e6dc" stroke="#b8582e" rx="3"/>
    <text x="1466" y="675" class="mono" font-size="10" font-weight="700" fill="#b8582e">WRITE</text>
  </g>

  <!-- Power BI -->
  <g>
    <rect x="1240" y="780" width="290" height="106" fill="#ffffff" stroke="#c5b9a3" stroke-width="1.4" rx="8"/>
    <text x="1256" y="806" class="mono" font-size="11" font-weight="600" letter-spacing="0.16" fill="#5a5a5a">SaaS · BI</text>
    <text x="1256" y="832" font-size="16" font-weight="600">Power BI</text>
    <text x="1256" y="852" font-size="13" fill="#5a5a5a">Reporting hiérarchique</text>
    <text x="1256" y="870" font-size="13" fill="#5a5a5a">NPS · cost-per-RDV · conv.</text>
    <rect x="1444" y="790" width="90" height="22" fill="#eee" stroke="#9a9a9a" rx="3"/>
    <text x="1454" y="805" class="mono" font-size="10" font-weight="700" fill="#7a7a7a">N/A copilot</text>
  </g>

  <!-- ═════ CONNECTEURS (FLUX) ═════ -->

  <!-- Conseiller → Salesforce (workflow principal + SSO implicite) -->
  <path d="M 200 290 C 360 290, 440 295, 538 304" fill="none" stroke="#1a1a1a" stroke-width="2"/>
  <polygon points="544,304 534,299 534,309" fill="#1a1a1a"/>
  <rect x="278" y="266" width="190" height="20" fill="#faf6ec" opacity="0.94" rx="3"/>
  <text x="373" y="281" class="mono" font-size="11" font-weight="600" fill="#1a1a1a" text-anchor="middle">workflow CRM · SSO Azure AD</text>

  <!-- Salesforce → Snowflake (API REST data 360) — coudée, décalée à gauche -->
  <path d="M 560 378 L 560 397 L 435 397 L 435 415" fill="none" stroke="#3d5a82" stroke-width="1.8"/>
  <polygon points="435,422 431,414 439,414" fill="#3d5a82"/>
  <rect x="458" y="387" width="80" height="20" fill="#faf6ec" opacity="0.94" rx="3"/>
  <text x="498" y="402" class="mono" font-size="11" font-weight="600" fill="#3d5a82" text-anchor="middle">API REST</text>

  <!-- Salesforce → Pega (API REST scoring) — vertical droit -->
  <path d="M 700 378 L 700 415" fill="none" stroke="#3d5a82" stroke-width="1.8"/>
  <polygon points="700,422 696,414 704,414" fill="#3d5a82"/>
  <rect x="710" y="387" width="80" height="20" fill="#faf6ec" opacity="0.94" rx="3"/>
  <text x="750" y="402" class="mono" font-size="11" font-weight="600" fill="#3d5a82" text-anchor="middle">API REST</text>

  <!-- Snowflake ← Mainframe (ETL mirror nuit) -->
  <path d="M 430 658 C 430 600, 430 540, 430 528" fill="none" stroke="#7a5a3a" stroke-width="2" stroke-dasharray="6 4"/>
  <polygon points="430,524 425,533 435,533" fill="#7a5a3a"/>
  <rect x="332" y="586" width="200" height="20" fill="#faf6ec" opacity="0.92" rx="3"/>
  <text x="432" y="601" class="mono" font-size="11" font-weight="600" fill="#7a5a3a" text-anchor="middle">ETL · mirror nuit (read-only)</text>

  <!-- Salesforce → Middleware → Mainframe (WS-SOAP, transactions officielles) — décalée à droite pour clearance Pega -->
  <path d="M 840 378 L 840 645" fill="none" stroke="#7a5a3a" stroke-width="2"/>
  <polygon points="840,651 836,643 844,643" fill="#7a5a3a"/>
  <rect x="752" y="558" width="180" height="20" fill="#faf6ec" opacity="0.94" rx="3"/>
  <text x="842" y="573" class="mono" font-size="11" font-weight="600" fill="#7a5a3a" text-anchor="middle">WS-SOAP · via Middleware</text>
  <rect x="752" y="582" width="220" height="18" fill="#faf6ec" opacity="0.94" rx="3"/>
  <text x="752" y="596" class="mono" font-size="10" font-style="italic" fill="#a83232">décision humaine côté Mainframe</text>

  <!-- Salesforce → ServiceNow (création tickets) -->
  <path d="M 920 320 C 1080 320, 1140 340, 1238 668" fill="none" stroke="#b8582e" stroke-width="1.6"/>
  <polygon points="1240,672 1235,663 1244,663" fill="#b8582e"/>
  <rect x="1086" y="540" width="148" height="20" fill="#faf6ec" opacity="0.94" rx="3"/>
  <text x="1160" y="555" class="mono" font-size="11" font-weight="600" fill="#b8582e" text-anchor="middle">REST · WRITE tickets</text>

  <!-- Salesforce → Power BI (data source reporting) -->
  <path d="M 920 360 C 1080 360, 1180 700, 1238 818" fill="none" stroke="#9a9a9a" stroke-width="1.3" stroke-dasharray="3 3"/>
  <polygon points="1240,822 1235,813 1244,813" fill="#9a9a9a"/>
  <rect x="1080" y="588" width="120" height="20" fill="#faf6ec" opacity="0.92" rx="3"/>
  <text x="1140" y="603" class="mono" font-size="11" font-weight="600" fill="#7a7a7a" text-anchor="middle">ODBC · export</text>

  <!-- Documentum ← (via Middleware, Salesforce dispose d'un connecteur partiel actuel mais inutilisé) -->
  <path d="M 880 720 C 902 720, 902 720, 908 728" fill="none" stroke="#7a5a3a" stroke-width="1.4" opacity="0.5"/>
  <text x="868" y="744" class="mono" font-size="10" font-style="italic" fill="#8a8a8a">(SOAP)</text>

  <!-- ═════ LÉGENDE COMPLÈTE (bas) ═════ -->
  <g>
    <line x1="60" y1="1000" x2="1540" y2="1000" stroke="#c5b9a3" stroke-width="1"/>
    <text x="60" y="1028" class="mono" font-size="12" font-weight="700" letter-spacing="0.18" fill="#5a5a5a">LÉGENDE</text>

    <!-- Colonne 1 : criticité copilot -->
    <text x="60" y="1054" font-size="13" font-weight="600">Criticité pour le copilot</text>
    <rect x="60" y="1066" width="14" height="14" fill="#e8f0ef" stroke="#2e7a7a"/>
    <text x="82" y="1078" font-size="12" fill="#1a1a1a">READ : RAG / contexte / scoring</text>
    <rect x="60" y="1086" width="14" height="14" fill="#f5e6dc" stroke="#b8582e"/>
    <text x="82" y="1098" font-size="12" fill="#1a1a1a">WRITE : tickets, fiches, formulaires</text>
    <rect x="60" y="1106" width="14" height="14" fill="#f4dcdc" stroke="#a83232" stroke-width="1.4"/>
    <text x="82" y="1118" font-size="12" fill="#1a1a1a">PAS TOUCHE : régulé, supervision humaine</text>

    <!-- Colonne 2 : zones réseau -->
    <text x="450" y="1054" font-size="13" font-weight="600">Zones réseau</text>
    <rect x="450" y="1066" width="14" height="14" fill="#eef2f8" stroke="#6f8db4" stroke-dasharray="3 2"/>
    <text x="472" y="1078" font-size="12" fill="#1a1a1a">Cloud Azure (région France)</text>
    <rect x="450" y="1086" width="14" height="14" fill="#f0f4ec" stroke="#7a9a5e" stroke-dasharray="3 2"/>
    <text x="472" y="1098" font-size="12" fill="#1a1a1a">Microsoft 365 + identités</text>
    <rect x="450" y="1106" width="14" height="14" fill="#f9f3eb" stroke="#b89370" stroke-dasharray="3 2"/>
    <text x="472" y="1118" font-size="12" fill="#1a1a1a">Datacenter on-premise legacy</text>

    <!-- Colonne 3 : protocoles -->
    <text x="850" y="1054" font-size="13" font-weight="600">Protocoles</text>
    <line x1="850" y1="1072" x2="884" y2="1072" stroke="#1a1a1a" stroke-width="2"/>
    <text x="894" y="1077" font-size="12" fill="#1a1a1a">Workflow utilisateur</text>
    <line x1="850" y1="1092" x2="884" y2="1092" stroke="#3d5a82" stroke-width="1.8"/>
    <text x="894" y="1097" font-size="12" fill="#1a1a1a">API REST (cloud SaaS)</text>
    <line x1="850" y1="1112" x2="884" y2="1112" stroke="#7a5a3a" stroke-width="2"/>
    <text x="894" y="1117" font-size="12" fill="#1a1a1a">WS-SOAP / ETL legacy</text>

    <!-- Colonne 4 : alertes -->
    <text x="1200" y="1054" font-size="13" font-weight="600">Signaux</text>
    <rect x="1200" y="1066" width="14" height="14" fill="#fff8e8" stroke="#d4a000" stroke-width="1.4" stroke-dasharray="3 2"/>
    <text x="1222" y="1078" font-size="12" fill="#1a1a1a">Sclérosant projet (Documentum)</text>
    <text x="1200" y="1098" font-size="12" font-style="italic" fill="#b8582e">★ Épicentre futur copilot (Salesforce)</text>
    <text x="1200" y="1118" font-size="12" font-style="italic" fill="#8a8a8a">6 MCP servers à monter, ~6-8 sem.</text>
  </g>

  <!-- ═════ Source line ═════ -->
  <text x="60" y="970" font-size="13" font-style="italic" fill="#8a8a8a">
    Source : analyse des dépendances copilot · juin 2026 · Documentum DMS = 50 % du risque planning · le mainframe reste inaccessible (DDA + AI Act Annexe III §5).
  </text>
</svg>
