<svg xmlns="http://www.w3.org/2000/svg" viewBox="0 0 1600 1130" font-family="Inter, system-ui, sans-serif" role="img" aria-labelledby="title-acte-II">
  <title id="title-acte-II">Acte II — La boucle</title>
  <desc>Infographie de l'Acte II du livre « Anatomie d'une IA agentique ». Synthèse des 5 chapitres : thèse, public cible, contenu de chaque chapitre, schéma signature.</desc>
  <style>
    .acte-tag { font: 700 14px 'JetBrains Mono', monospace; fill: #2d8a8a; letter-spacing: 0.18em; }
    .acte-num { font: 900 200px/1 'Fraunces', 'Georgia', serif; fill: #2d8a8a; opacity: 0.08; }
    .acte-title { font: 700 52px/1.1 'Fraunces', 'Georgia', serif; fill: #1a1a1a; }
    .acte-subtitle { font: italic 18px/1.4 'Inter', sans-serif; fill: #444; }
    .acte-audience { font: 600 13px 'Inter', sans-serif; fill: #2d8a8a; letter-spacing: 0.05em; }
    .acte-thesis { font: 16px/1.4 'Inter', sans-serif; fill: #1a1a1a; }
    .card-bg { fill: #ffffff; stroke: #d4cdb6; stroke-width: 0.8; }
    .card-stripe { fill: #2d8a8a; }
    .card-num { font: 700 32px 'Fraunces', 'Georgia', serif; fill: #fff; }
    .card-tag { font: 600 9px 'JetBrains Mono', monospace; fill: #fff; letter-spacing: 0.12em; }
    .card-title { font: 600 16px/1.25 'Inter', sans-serif; fill: #1a1a1a; }
    .card-fact { font: 600 12px 'JetBrains Mono', monospace; fill: #1a4a4a; }
    .card-claim { font: italic 13px/1.4 'Inter', sans-serif; fill: #333; }
    .card-schema { font: 11px 'JetBrains Mono', monospace; fill: #2d8a8a; }
    .card-label { font: 600 9px 'Inter', sans-serif; fill: #888; letter-spacing: 0.1em; }
    .callout-box { fill: #d8ecec; stroke: #2d8a8a; stroke-width: 1.2; }
    .callout-title { font: 700 14px 'Inter', sans-serif; fill: #1a4a4a; letter-spacing: 0.04em; }
    .callout-body { font: 13px/1.4 'Inter', sans-serif; fill: #1a1a1a; }
    .caption { font: italic 11px 'Inter', sans-serif; fill: #777; }
  </style>
  <rect width="1600" height="1130" fill="#faf6ec"/>
  <text x="1360" y="200" class="acte-num">II</text>
  <text x="50" y="42" class="acte-tag">ACTE II</text>
  <text x="50" y="98" class="acte-title">La boucle</text>
  <text x="50" y="130" class="acte-subtitle">Anneaux 01-04. C'est ici que se gagne ou se perd le ROI, et que se constitue la dette technique.</text>
  <text x="50" y="170" class="acte-audience">LECTEUR CIBLE</text>
  <text x="50" y="190" class="acte-thesis">Agent engineer · tech lead · architecte · platform engineer</text>
  <text x="650" y="170" class="acte-audience">THÈSE</text>
  <text x="650" y="190" class="acte-thesis">Le harness — pas le modèle — fait l'agent. Reason · Act · Observe +</text>
  <text x="650" y="212" class="acte-thesis">budget de tours + mémoire instrumentée + patterns adaptés au cas</text>
  <text x="650" y="234" class="acte-thesis">d'usage.</text>
  <line x1="50" y1="240" x2="1550" y2="240" stroke="#2d8a8a" stroke-width="2"/>
  <rect x="50.0" y="260" width="285.6" height="520" class="card-bg" rx="6"/>
  <rect x="50.0" y="260" width="285.6" height="80" class="card-stripe" rx="6"/>
  <rect x="50.0" y="320" width="285.6" height="20" class="card-stripe"/>
  <text x="64.0" y="310" class="card-num">7</text>
  <text x="321.6" y="290" text-anchor="end" class="card-tag">CHAPITRE</text>
  <text x="66.0" y="370" class="card-title">Reason · Act · Observe</text>
  <text x="66.0" y="415" class="card-label">CONTENU</text>
  <text x="66.0" y="431" class="card-fact">harness · stop_reason ·</text>
  <text x="66.0" y="447" class="card-fact">hooks</text>
  <text x="66.0" y="485" class="card-label">À RETENIR</text>
  <text x="66.0" y="501" class="card-claim">POC sans harness défensif =</text>
  <text x="66.0" y="518" class="card-claim">4 $/min en silence</text>
  <text x="66.0" y="557" class="card-label">SCHÉMA</text>
  <text x="66.0" y="573" class="card-schema">R1 boucle canonique + 3</text>
  <text x="66.0" y="587" class="card-schema">variantes</text>
  <rect x="353.6" y="260" width="285.6" height="520" class="card-bg" rx="6"/>
  <rect x="353.6" y="260" width="285.6" height="80" class="card-stripe" rx="6"/>
  <rect x="353.6" y="320" width="285.6" height="20" class="card-stripe"/>
  <text x="367.6" y="310" class="card-num">8</text>
  <text x="625.2" y="290" text-anchor="end" class="card-tag">CHAPITRE</text>
  <text x="369.6" y="370" class="card-title">Les outils (les mains</text>
  <text x="369.6" y="391" class="card-title">de l'agent)</text>
  <text x="369.6" y="436" class="card-label">CONTENU</text>
  <text x="369.6" y="452" class="card-fact">function calling · code</text>
  <text x="369.6" y="468" class="card-fact">exec · sandbox</text>
  <text x="369.6" y="506" class="card-label">À RETENIR</text>
  <text x="369.6" y="522" class="card-claim">execute_sql sans scoping =</text>
  <text x="369.6" y="539" class="card-claim">exfiltration en 3 tours</text>
  <text x="369.6" y="578" class="card-label">SCHÉMA</text>
  <text x="369.6" y="594" class="card-schema">renvois Ch.13 (MCP) + Ch.19</text>
  <text x="369.6" y="608" class="card-schema">(sécu)</text>
  <rect x="657.2" y="260" width="285.6" height="520" class="card-bg" rx="6"/>
  <rect x="657.2" y="260" width="285.6" height="80" class="card-stripe" rx="6"/>
  <rect x="657.2" y="320" width="285.6" height="20" class="card-stripe"/>
  <text x="671.2" y="310" class="card-num">9</text>
  <text x="928.8" y="290" text-anchor="end" class="card-tag">CHAPITRE</text>
  <text x="673.2" y="370" class="card-title">Mémoire agentique</text>
  <text x="673.2" y="415" class="card-label">CONTENU</text>
  <text x="673.2" y="431" class="card-fact">4 piliers × 6 opérations ×</text>
  <text x="673.2" y="447" class="card-fact">5 archis</text>
  <text x="673.2" y="485" class="card-label">À RETENIR</text>
  <text x="673.2" y="501" class="card-claim">Letta · A-MEM · Zep · Mem0 ·</text>
  <text x="673.2" y="518" class="card-claim">file-based</text>
  <text x="673.2" y="557" class="card-label">SCHÉMA</text>
  <text x="673.2" y="573" class="card-schema">R2 grille 4×5</text>
  <rect x="960.8" y="260" width="285.6" height="520" class="card-bg" rx="6"/>
  <rect x="960.8" y="260" width="285.6" height="80" class="card-stripe" rx="6"/>
  <rect x="960.8" y="320" width="285.6" height="20" class="card-stripe"/>
  <text x="974.8" y="310" class="card-num">10</text>
  <text x="1232.4" y="290" text-anchor="end" class="card-tag">CHAPITRE</text>
  <text x="976.8" y="370" class="card-title">Compaction &amp; oubli</text>
  <text x="976.8" y="391" class="card-title">stratégique</text>
  <text x="976.8" y="436" class="card-label">CONTENU</text>
  <text x="976.8" y="452" class="card-fact">5 familles · triangle</text>
  <text x="976.8" y="468" class="card-fact">fidélité×coût×oubli</text>
  <text x="976.8" y="506" class="card-label">À RETENIR</text>
  <text x="976.8" y="522" class="card-claim">Lost in the Middle tient en</text>
  <text x="976.8" y="539" class="card-claim">2026</text>
  <text x="976.8" y="578" class="card-label">SCHÉMA</text>
  <text x="976.8" y="594" class="card-schema">R3 triangle + SpAIware</text>
  <rect x="1264.4" y="260" width="285.6" height="520" class="card-bg" rx="6"/>
  <rect x="1264.4" y="260" width="285.6" height="80" class="card-stripe" rx="6"/>
  <rect x="1264.4" y="320" width="285.6" height="20" class="card-stripe"/>
  <text x="1278.4" y="310" class="card-num">11</text>
  <text x="1536.0" y="290" text-anchor="end" class="card-tag">CHAPITRE</text>
  <text x="1280.4" y="370" class="card-title">Patterns canoniques &amp;</text>
  <text x="1280.4" y="391" class="card-title">orchestration</text>
  <text x="1280.4" y="436" class="card-label">CONTENU</text>
  <text x="1280.4" y="452" class="card-fact">8 patterns · 4 régimes</text>
  <text x="1280.4" y="468" class="card-fact">contrôle</text>
  <text x="1280.4" y="506" class="card-label">À RETENIR</text>
  <text x="1280.4" y="522" class="card-claim">Klarna 67 % puis recul</text>
  <text x="1280.4" y="539" class="card-claim">partiel (5 % cas charges)</text>
  <text x="1280.4" y="578" class="card-label">SCHÉMA</text>
  <text x="1280.4" y="594" class="card-schema">R4 patterns + arbre buy/build</text>
  <rect x="50.0" y="820" width="741.0" height="130" class="callout-box" rx="4"/>
  <text x="70.0" y="848" class="callout-title">LA RÈGLE SCHLUNTZ/ZHANG</text>
  <text x="70.0" y="874" class="callout-body">Start simple · measure · add complexity only when it delivers measurable value.</text>
  <rect x="809.0" y="820" width="741.0" height="130" class="callout-box" rx="4"/>
  <text x="829.0" y="848" class="callout-title">RISQUE #1 SUR-ORCHESTRATION</text>
  <text x="829.0" y="874" class="callout-body">Multi-agent prématuré = ×10-15 tokens, debug exponentiellement plus dur.</text>
  <text x="50" y="1114" class="caption">Livre « Anatomie d'une IA agentique » · Mathieu Guglielmino · état au 29 mai 2026 · mathieugug.github.io</text>
  <text x="1550" y="1114" text-anchor="end" class="caption">II / 4</text>
</svg>
