<svg xmlns="http://www.w3.org/2000/svg" viewBox="0 0 1600 1130" font-family="Inter, system-ui, sans-serif" role="img" aria-labelledby="title-acte-I">
  <title id="title-acte-I">Acte I — Les moteurs</title>
  <desc>Infographie de l'Acte I du livre « Anatomie d'une IA agentique ». Synthèse des 6 chapitres : thèse, public cible, contenu de chaque chapitre, schéma signature.</desc>
  <style>
    .acte-tag { font: 700 14px 'JetBrains Mono', monospace; fill: #b8582e; letter-spacing: 0.18em; }
    .acte-num { font: 900 200px/1 'Fraunces', 'Georgia', serif; fill: #b8582e; opacity: 0.08; }
    .acte-title { font: 700 52px/1.1 'Fraunces', 'Georgia', serif; fill: #1a1a1a; }
    .acte-subtitle { font: italic 18px/1.4 'Inter', sans-serif; fill: #444; }
    .acte-audience { font: 600 13px 'Inter', sans-serif; fill: #b8582e; letter-spacing: 0.05em; }
    .acte-thesis { font: 16px/1.4 'Inter', sans-serif; fill: #1a1a1a; }
    .card-bg { fill: #ffffff; stroke: #d4cdb6; stroke-width: 0.8; }
    .card-stripe { fill: #b8582e; }
    .card-num { font: 700 32px 'Fraunces', 'Georgia', serif; fill: #fff; }
    .card-tag { font: 600 9px 'JetBrains Mono', monospace; fill: #fff; letter-spacing: 0.12em; }
    .card-title { font: 600 16px/1.25 'Inter', sans-serif; fill: #1a1a1a; }
    .card-fact { font: 600 12px 'JetBrains Mono', monospace; fill: #5e2f17; }
    .card-claim { font: italic 13px/1.4 'Inter', sans-serif; fill: #333; }
    .card-schema { font: 11px 'JetBrains Mono', monospace; fill: #b8582e; }
    .card-label { font: 600 9px 'Inter', sans-serif; fill: #888; letter-spacing: 0.1em; }
    .callout-box { fill: #f5e4d6; stroke: #b8582e; stroke-width: 1.2; }
    .callout-title { font: 700 14px 'Inter', sans-serif; fill: #5e2f17; letter-spacing: 0.04em; }
    .callout-body { font: 13px/1.4 'Inter', sans-serif; fill: #1a1a1a; }
    .caption { font: italic 11px 'Inter', sans-serif; fill: #777; }
  </style>
  <rect width="1600" height="1130" fill="#faf6ec"/>
  <text x="1360" y="200" class="acte-num">I</text>
  <text x="50" y="42" class="acte-tag">ACTE I</text>
  <text x="50" y="98" class="acte-title">Les moteurs</text>
  <text x="50" y="130" class="acte-subtitle">Couches du dessous de la pile. Avant la boucle, le modèle. Avant la conversation, un tirage probabiliste.</text>
  <text x="50" y="170" class="acte-audience">LECTEUR CIBLE</text>
  <text x="50" y="190" class="acte-thesis">Expert data · FinOps · acheteur infra/cloud · sponsor IA technique</text>
  <text x="650" y="170" class="acte-audience">THÈSE</text>
  <text x="650" y="190" class="acte-thesis">Toute la stack qui suit existe pour domestiquer la variance</text>
  <text x="650" y="212" class="acte-thesis">fondamentale du LLM sans la tuer — car c'est elle qui rend le modèle</text>
  <text x="650" y="234" class="acte-thesis">capable de raisonner.</text>
  <line x1="50" y1="240" x2="1550" y2="240" stroke="#b8582e" stroke-width="2"/>
  <rect x="50.0" y="260" width="235.0" height="520" class="card-bg" rx="6"/>
  <rect x="50.0" y="260" width="235.0" height="80" class="card-stripe" rx="6"/>
  <rect x="50.0" y="320" width="235.0" height="20" class="card-stripe"/>
  <text x="64.0" y="310" class="card-num">1</text>
  <text x="271.0" y="290" text-anchor="end" class="card-tag">CHAPITRE</text>
  <text x="66.0" y="370" class="card-title">Le cœur stochastique</text>
  <text x="66.0" y="415" class="card-label">CONTENU</text>
  <text x="66.0" y="431" class="card-fact">softmax · T · top-p · seed</text>
  <text x="66.0" y="469" class="card-label">À RETENIR</text>
  <text x="66.0" y="485" class="card-claim">reproductibilité statistique</text>
  <text x="66.0" y="502" class="card-claim">remplace bit-à-bit</text>
  <text x="66.0" y="541" class="card-label">SCHÉMA</text>
  <text x="66.0" y="557" class="card-schema">S1.1 + S1.2</text>
  <rect x="303.0" y="260" width="235.0" height="520" class="card-bg" rx="6"/>
  <rect x="303.0" y="260" width="235.0" height="80" class="card-stripe" rx="6"/>
  <rect x="303.0" y="320" width="235.0" height="20" class="card-stripe"/>
  <text x="317.0" y="310" class="card-num">2</text>
  <text x="524.0" y="290" text-anchor="end" class="card-tag">CHAPITRE</text>
  <text x="319.0" y="370" class="card-title">Modèles de</text>
  <text x="319.0" y="391" class="card-title">raisonnement</text>
  <text x="319.0" y="436" class="card-label">CONTENU</text>
  <text x="319.0" y="452" class="card-fact">pivot o1 · RLVR · GRPO</text>
  <text x="319.0" y="490" class="card-label">À RETENIR</text>
  <text x="319.0" y="506" class="card-claim">AIME 13 → 74 % single-sample</text>
  <text x="319.0" y="523" class="card-claim">en 6 mois</text>
  <text x="319.0" y="562" class="card-label">SCHÉMA</text>
  <text x="319.0" y="578" class="card-schema">E3 (capability×cost)</text>
  <rect x="556.0" y="260" width="235.0" height="520" class="card-bg" rx="6"/>
  <rect x="556.0" y="260" width="235.0" height="80" class="card-stripe" rx="6"/>
  <rect x="556.0" y="320" width="235.0" height="20" class="card-stripe"/>
  <text x="570.0" y="310" class="card-num">3</text>
  <text x="777.0" y="290" text-anchor="end" class="card-tag">CHAPITRE</text>
  <text x="572.0" y="370" class="card-title">PRM : la couche</text>
  <text x="572.0" y="391" class="card-title">notateur cachée</text>
  <text x="572.0" y="436" class="card-label">CONTENU</text>
  <text x="572.0" y="452" class="card-fact">économie souterraine 2-4</text>
  <text x="572.0" y="468" class="card-fact">Md$</text>
  <text x="572.0" y="506" class="card-label">À RETENIR</text>
  <text x="572.0" y="522" class="card-claim">reward hacking 99 % /</text>
  <text x="572.0" y="539" class="card-claim">verbalisation &lt; 2 %</text>
  <text x="572.0" y="578" class="card-label">SCHÉMA</text>
  <text x="572.0" y="594" class="card-schema">E5 (PRM vs judge vs human)</text>
  <rect x="809.0" y="260" width="235.0" height="520" class="card-bg" rx="6"/>
  <rect x="809.0" y="260" width="235.0" height="80" class="card-stripe" rx="6"/>
  <rect x="809.0" y="320" width="235.0" height="20" class="card-stripe"/>
  <text x="823.0" y="310" class="card-num">4</text>
  <text x="1030.0" y="290" text-anchor="end" class="card-tag">CHAPITRE</text>
  <text x="825.0" y="370" class="card-title">Décode spéculative</text>
  <text x="825.0" y="415" class="card-label">CONTENU</text>
  <text x="825.0" y="431" class="card-fact">théorème Leviathan · 4</text>
  <text x="825.0" y="447" class="card-fact">familles</text>
  <text x="825.0" y="485" class="card-label">À RETENIR</text>
  <text x="825.0" y="501" class="card-claim">×3-6,5 throughput sans</text>
  <text x="825.0" y="518" class="card-claim">dégrader la qualité</text>
  <text x="825.0" y="557" class="card-label">SCHÉMA</text>
  <text x="825.0" y="573" class="card-schema">matrice frameworks</text>
  <rect x="1062.0" y="260" width="235.0" height="520" class="card-bg" rx="6"/>
  <rect x="1062.0" y="260" width="235.0" height="80" class="card-stripe" rx="6"/>
  <rect x="1062.0" y="320" width="235.0" height="20" class="card-stripe"/>
  <text x="1076.0" y="310" class="card-num">5</text>
  <text x="1283.0" y="290" text-anchor="end" class="card-tag">CHAPITRE</text>
  <text x="1078.0" y="370" class="card-title">L'économie unitaire de</text>
  <text x="1078.0" y="391" class="card-title">l'inférence</text>
  <text x="1078.0" y="436" class="card-label">CONTENU</text>
  <text x="1078.0" y="452" class="card-fact">LLMflation ×1 000 en 4 ans</text>
  <text x="1078.0" y="490" class="card-label">À RETENIR</text>
  <text x="1078.0" y="506" class="card-claim">pile 7 couches ×14</text>
  <text x="1078.0" y="523" class="card-claim">throughput sur B300</text>
  <text x="1078.0" y="562" class="card-label">SCHÉMA</text>
  <text x="1078.0" y="578" class="card-schema">E2 (pile 7 couches)</text>
  <rect x="1315.0" y="260" width="235.0" height="520" class="card-bg" rx="6"/>
  <rect x="1315.0" y="260" width="235.0" height="80" class="card-stripe" rx="6"/>
  <rect x="1315.0" y="320" width="235.0" height="20" class="card-stripe"/>
  <text x="1329.0" y="310" class="card-num">6</text>
  <text x="1536.0" y="290" text-anchor="end" class="card-tag">CHAPITRE</text>
  <text x="1331.0" y="370" class="card-title">Bordure : world models</text>
  <text x="1331.0" y="415" class="card-label">CONTENU</text>
  <text x="1331.0" y="431" class="card-fact">JEPA · diffusion ·</text>
  <text x="1331.0" y="447" class="card-fact">autoregressif</text>
  <text x="1331.0" y="485" class="card-label">À RETENIR</text>
  <text x="1331.0" y="501" class="card-claim">signal faible 18-36 mois</text>
  <text x="1331.0" y="518" class="card-claim">(sauf computer use)</text>
  <text x="1331.0" y="557" class="card-label">SCHÉMA</text>
  <text x="1331.0" y="573" class="card-schema">thermomètre 6 verrous</text>
  <rect x="50.0" y="820" width="741.0" height="130" class="callout-box" rx="4"/>
  <text x="70.0" y="848" class="callout-title">TRIPTYQUE TARIFAIRE</text>
  <text x="70.0" y="874" class="callout-body">Ch.5 coût/token ↔ Ch.21 valeur/outcome ↔ Ch.22 externalité</text>
  <rect x="809.0" y="820" width="741.0" height="130" class="callout-box" rx="4"/>
  <text x="829.0" y="848" class="callout-title">FRONTIÈRES STRICTES</text>
  <text x="829.0" y="874" class="callout-body">RLVR canonique Ch.2, PRM en Ch.3, spec en Ch.4, pile 7 couches en Ch.5 — aucune</text>
  <text x="829.0" y="894" class="callout-body">redite.</text>
  <text x="50" y="1114" class="caption">Livre « Anatomie d'une IA agentique » · Mathieu Guglielmino · état au 29 mai 2026 · mathieugug.github.io</text>
  <text x="1550" y="1114" text-anchor="end" class="caption">I / 4</text>
</svg>
