<svg xmlns="http://www.w3.org/2000/svg" viewBox="0 0 1600 1130" font-family="Inter, system-ui, sans-serif" role="img" aria-labelledby="title-acte-IV">
  <title id="title-acte-IV">Acte IV — Mesures et garde-fous</title>
  <desc>Infographie de l'Acte IV du livre « Anatomie d'une IA agentique ». Synthèse des 7 chapitres : thèse, public cible, contenu de chaque chapitre, schéma signature.</desc>
  <style>
    .acte-tag { font: 700 14px 'JetBrains Mono', monospace; fill: #5e5345; letter-spacing: 0.18em; }
    .acte-num { font: 900 200px/1 'Fraunces', 'Georgia', serif; fill: #5e5345; opacity: 0.08; }
    .acte-title { font: 700 52px/1.1 'Fraunces', 'Georgia', serif; fill: #1a1a1a; }
    .acte-subtitle { font: italic 18px/1.4 'Inter', sans-serif; fill: #444; }
    .acte-audience { font: 600 13px 'Inter', sans-serif; fill: #5e5345; letter-spacing: 0.05em; }
    .acte-thesis { font: 16px/1.4 'Inter', sans-serif; fill: #1a1a1a; }
    .card-bg { fill: #ffffff; stroke: #d4cdb6; stroke-width: 0.8; }
    .card-stripe { fill: #5e5345; }
    .card-num { font: 700 32px 'Fraunces', 'Georgia', serif; fill: #fff; }
    .card-tag { font: 600 9px 'JetBrains Mono', monospace; fill: #fff; letter-spacing: 0.12em; }
    .card-title { font: 600 16px/1.25 'Inter', sans-serif; fill: #1a1a1a; }
    .card-fact { font: 600 12px 'JetBrains Mono', monospace; fill: #2e2820; }
    .card-claim { font: italic 13px/1.4 'Inter', sans-serif; fill: #333; }
    .card-schema { font: 11px 'JetBrains Mono', monospace; fill: #5e5345; }
    .card-label { font: 600 9px 'Inter', sans-serif; fill: #888; letter-spacing: 0.1em; }
    .callout-box { fill: #e8e2d2; stroke: #5e5345; stroke-width: 1.2; }
    .callout-title { font: 700 14px 'Inter', sans-serif; fill: #2e2820; letter-spacing: 0.04em; }
    .callout-body { font: 13px/1.4 'Inter', sans-serif; fill: #1a1a1a; }
    .caption { font: italic 11px 'Inter', sans-serif; fill: #777; }
  </style>
  <rect width="1600" height="1130" fill="#faf6ec"/>
  <text x="1360" y="200" class="acte-num">IV</text>
  <text x="50" y="42" class="acte-tag">ACTE IV</text>
  <text x="50" y="98" class="acte-title">Mesures et garde-fous</text>
  <text x="50" y="130" class="acte-subtitle">Anneaux 06-09. C'est ici que se gagne ou se perd la confiance du décideur — et qu'on sait tuer un cas d'usage au bon moment.</text>
  <text x="50" y="170" class="acte-audience">LECTEUR CIBLE</text>
  <text x="50" y="190" class="acte-thesis">Décideur · sponsor · RSSI · DPO · FinOps · CDO · CRO/COO banque</text>
  <text x="650" y="170" class="acte-audience">THÈSE</text>
  <text x="650" y="190" class="acte-thesis">Le triptyque coût/token (Ch.5) · valeur/outcome (Ch.21) · externalité</text>
  <text x="650" y="212" class="acte-thesis">(Ch.22). Plus le calendrier réglementaire (Ch.23) qui compresse à 18</text>
  <text x="650" y="234" class="acte-thesis">mois.</text>
  <line x1="50" y1="240" x2="1550" y2="240" stroke="#5e5345" stroke-width="2"/>
  <rect x="50.0" y="260" width="198.9" height="520" class="card-bg" rx="6"/>
  <rect x="50.0" y="260" width="198.9" height="80" class="card-stripe" rx="6"/>
  <rect x="50.0" y="320" width="198.9" height="20" class="card-stripe"/>
  <text x="64.0" y="310" class="card-num">17</text>
  <text x="234.9" y="290" text-anchor="end" class="card-tag">CHAPITRE</text>
  <text x="66.0" y="370" class="card-title">Évaluer un agent (+</text>
  <text x="66.0" y="391" class="card-title">leaderboards)</text>
  <text x="66.0" y="436" class="card-label">CONTENU</text>
  <text x="66.0" y="452" class="card-fact">playbook gruyère 8 étapes</text>
  <text x="66.0" y="490" class="card-label">À RETENIR</text>
  <text x="66.0" y="506" class="card-claim">4 vecteurs contamination ·</text>
  <text x="66.0" y="523" class="card-claim">l'éval interne datée bat les</text>
  <text x="66.0" y="540" class="card-claim">scores publics</text>
  <text x="66.0" y="579" class="card-label">SCHÉMA</text>
  <text x="66.0" y="595" class="card-schema">R11 gruyère + R12</text>
  <text x="66.0" y="609" class="card-schema">contamination</text>
  <rect x="266.9" y="260" width="198.9" height="520" class="card-bg" rx="6"/>
  <rect x="266.9" y="260" width="198.9" height="80" class="card-stripe" rx="6"/>
  <rect x="266.9" y="320" width="198.9" height="20" class="card-stripe"/>
  <text x="280.9" y="310" class="card-num">18</text>
  <text x="451.7" y="290" text-anchor="end" class="card-tag">CHAPITRE</text>
  <text x="282.9" y="370" class="card-title">Observabilité &amp;</text>
  <text x="282.9" y="391" class="card-title">cognitive audit trail</text>
  <text x="282.9" y="436" class="card-label">CONTENU</text>
  <text x="282.9" y="452" class="card-fact">OTel GenAI semconv · 6</text>
  <text x="282.9" y="468" class="card-fact">piliers</text>
  <text x="282.9" y="506" class="card-label">À RETENIR</text>
  <text x="282.9" y="522" class="card-claim">réponse à AI Act art.</text>
  <text x="282.9" y="539" class="card-claim">12-13-15 + RGPD art. 22</text>
  <text x="282.9" y="578" class="card-label">SCHÉMA</text>
  <text x="282.9" y="594" class="card-schema">R13 piliers + audit trail</text>
  <rect x="483.7" y="260" width="198.9" height="520" class="card-bg" rx="6"/>
  <rect x="483.7" y="260" width="198.9" height="80" class="card-stripe" rx="6"/>
  <rect x="483.7" y="320" width="198.9" height="20" class="card-stripe"/>
  <text x="497.7" y="310" class="card-num">19</text>
  <text x="668.6" y="290" text-anchor="end" class="card-tag">CHAPITRE</text>
  <text x="499.7" y="370" class="card-title">Garde-fous ·</text>
  <text x="499.7" y="391" class="card-title">jailbreaking · sécu</text>
  <text x="499.7" y="412" class="card-title">globale</text>
  <text x="499.7" y="457" class="card-label">CONTENU</text>
  <text x="499.7" y="473" class="card-fact">OWASP ASI Top 10 (déc</text>
  <text x="499.7" y="489" class="card-fact">2025)</text>
  <text x="499.7" y="527" class="card-label">À RETENIR</text>
  <text x="499.7" y="543" class="card-claim">Least agency · asymétrie</text>
  <text x="499.7" y="560" class="card-claim">attaque/défense · threat</text>
  <text x="499.7" y="577" class="card-claim">model unifié 2026</text>
  <text x="499.7" y="616" class="card-label">SCHÉMA</text>
  <text x="499.7" y="632" class="card-schema">E4 (textualisé §19.10)</text>
  <rect x="700.6" y="260" width="198.9" height="520" class="card-bg" rx="6"/>
  <rect x="700.6" y="260" width="198.9" height="80" class="card-stripe" rx="6"/>
  <rect x="700.6" y="320" width="198.9" height="20" class="card-stripe"/>
  <text x="714.6" y="310" class="card-num">20</text>
  <text x="885.4" y="290" text-anchor="end" class="card-tag">CHAPITRE</text>
  <text x="716.6" y="370" class="card-title">Runtime managé &amp;</text>
  <text x="716.6" y="391" class="card-title">déploiement</text>
  <text x="716.6" y="436" class="card-label">CONTENU</text>
  <text x="716.6" y="452" class="card-fact">AgentCore · Vertex · AI</text>
  <text x="716.6" y="468" class="card-fact">Foundry</text>
  <text x="716.6" y="506" class="card-label">À RETENIR</text>
  <text x="716.6" y="522" class="card-claim">buy/build : marges 45-80 %</text>
  <text x="716.6" y="539" class="card-claim">éclairent la décision</text>
  <text x="716.6" y="578" class="card-label">SCHÉMA</text>
  <text x="716.6" y="594" class="card-schema">E6 arbre décision</text>
  <rect x="917.4" y="260" width="198.9" height="520" class="card-bg" rx="6"/>
  <rect x="917.4" y="260" width="198.9" height="80" class="card-stripe" rx="6"/>
  <rect x="917.4" y="320" width="198.9" height="20" class="card-stripe"/>
  <text x="931.4" y="310" class="card-num">21</text>
  <text x="1102.3" y="290" text-anchor="end" class="card-tag">CHAPITRE</text>
  <text x="933.4" y="370" class="card-title">Mesurer le ROI</text>
  <text x="933.4" y="391" class="card-title">(paradoxe agentique)</text>
  <text x="933.4" y="436" class="card-label">CONTENU</text>
  <text x="933.4" y="452" class="card-fact">J-curve Brynjolfsson · 5</text>
  <text x="933.4" y="468" class="card-fact">frameworks</text>
  <text x="933.4" y="506" class="card-label">À RETENIR</text>
  <text x="933.4" y="522" class="card-claim">token → tâche → processus →</text>
  <text x="933.4" y="539" class="card-claim">outcome (Klarna)</text>
  <text x="933.4" y="578" class="card-label">SCHÉMA</text>
  <text x="933.4" y="594" class="card-schema">R16 (J-curve × LLMflation)</text>
  <rect x="1134.3" y="260" width="198.9" height="520" class="card-bg" rx="6"/>
  <rect x="1134.3" y="260" width="198.9" height="80" class="card-stripe" rx="6"/>
  <rect x="1134.3" y="320" width="198.9" height="20" class="card-stripe"/>
  <text x="1148.3" y="310" class="card-num">22</text>
  <text x="1319.1" y="290" text-anchor="end" class="card-tag">CHAPITRE</text>
  <text x="1150.3" y="370" class="card-title">Externalité</text>
  <text x="1150.3" y="391" class="card-title">énergétique : IA</text>
  <text x="1150.3" y="412" class="card-title">frugale</text>
  <text x="1150.3" y="457" class="card-label">CONTENU</text>
  <text x="1150.3" y="473" class="card-fact">3 scopes × 3 phases (GHG)</text>
  <text x="1150.3" y="511" class="card-label">À RETENIR</text>
  <text x="1150.3" y="527" class="card-claim">Jevons +48 % Google malgré</text>
  <text x="1150.3" y="544" class="card-claim">-10×/req · 3 trajectoires</text>
  <text x="1150.3" y="561" class="card-claim">2030</text>
  <text x="1150.3" y="600" class="card-label">SCHÉMA</text>
  <text x="1150.3" y="616" class="card-schema">R17 trajectoires + sankey eau</text>
  <rect x="1351.1" y="260" width="198.9" height="520" class="card-bg" rx="6"/>
  <rect x="1351.1" y="260" width="198.9" height="80" class="card-stripe" rx="6"/>
  <rect x="1351.1" y="320" width="198.9" height="20" class="card-stripe"/>
  <text x="1365.1" y="310" class="card-num">23</text>
  <text x="1536.0" y="290" text-anchor="end" class="card-tag">CHAPITRE</text>
  <text x="1367.1" y="370" class="card-title">Gouvernance : AI Act,</text>
  <text x="1367.1" y="391" class="card-title">banque, unlearning</text>
  <text x="1367.1" y="436" class="card-label">CONTENU</text>
  <text x="1367.1" y="452" class="card-fact">AI Act art. 9-15 effectif</text>
  <text x="1367.1" y="468" class="card-fact">2 août 2026</text>
  <text x="1367.1" y="506" class="card-label">À RETENIR</text>
  <text x="1367.1" y="522" class="card-claim">6 référentiels convergents ·</text>
  <text x="1367.1" y="539" class="card-claim">18 mois · 4 rôles pivot</text>
  <text x="1367.1" y="578" class="card-label">SCHÉMA</text>
  <text x="1367.1" y="594" class="card-schema">R18 calendrier unifié</text>
  <rect x="50.0" y="820" width="741.0" height="130" class="callout-box" rx="4"/>
  <text x="70.0" y="848" class="callout-title">CALENDRIER RÉGULATEUR</text>
  <text x="70.0" y="874" class="callout-body">Aoû 2026 art. 9-15 · automne 2026 Sigstore MCP v2 · janv 2027 registries signés</text>
  <text x="70.0" y="894" class="callout-body">· printemps 2027 AAIF + A2A×MCP.</text>
  <rect x="809.0" y="820" width="741.0" height="130" class="callout-box" rx="4"/>
  <text x="829.0" y="848" class="callout-title">RÔLES PIVOT</text>
  <text x="829.0" y="874" class="callout-body">DPO · RSSI · Sponsor IA (CDO) · CRO/COO (banque haut-risque) — alignement</text>
  <text x="829.0" y="894" class="callout-body">obligatoire sur chaque décision.</text>
  <text x="50" y="1114" class="caption">Livre « Anatomie d'une IA agentique » · Mathieu Guglielmino · état au 29 mai 2026 · mathieugug.github.io</text>
  <text x="1550" y="1114" text-anchor="end" class="caption">IV / 4</text>
</svg>
