<svg xmlns="http://www.w3.org/2000/svg" viewBox="0 0 1200 640" font-family="Inter, system-ui, sans-serif" role="img" aria-labelledby="title-fig02">
  <title id="title-fig02">Variance accumulée : 100 trajectoires de décode depuis le même prompt à T=0,7</title>
  <desc>Faisceau de 100 trajectoires de génération token-par-token au sampling stochastique T=0,7. Les courbes convergent à l'origine puis divergent après une dizaine de tokens, illustrant qu'un même prompt produit des sorties distinctes à chaque rejouage.</desc>
  <style>
    .title { font: 600 26px/1.2 'Fraunces', 'Georgia', serif; fill: #1a1a1a; }
    .subtitle { font: italic 14px/1.4 'Inter', sans-serif; fill: #555; }
    .axis-title { font: 600 12px 'Inter', sans-serif; fill: #444; }
    .label { font: 10px 'JetBrains Mono', monospace; fill: #555; }
    .annotation { font: italic 13px 'Inter', sans-serif; fill: #444; }
    .annotation-em { font: italic 14px 'Inter', sans-serif; fill: #b8582e; }
    .baseline { stroke: #1a1a1a; stroke-width: 0.8; }
    .grid { stroke: #d4cdb6; stroke-width: 0.5; stroke-dasharray: 2,4; }
    .traj { stroke: #2d8a8a; stroke-width: 0.7; fill: none; opacity: 0.18; }
    .traj-up { stroke: #7a1e1e; stroke-width: 1.6; fill: none; opacity: 0.95; }
    .traj-mid { stroke: #1a1a1a; stroke-width: 1.6; fill: none; opacity: 0.9; stroke-dasharray: 4,3; }
    .traj-down { stroke: #b8582e; stroke-width: 1.6; fill: none; opacity: 0.95; }
    .divergence-zone { fill: #b8582e; opacity: 0.06; }
    .marker { fill: #1a1a1a; }
  </style>
  <rect width="1200" height="640" fill="#faf6ec"/>
  <text x="40" y="42" class="title">Mille décodes depuis le même prompt à T=0,7 : la variance accumulée</text>
  <text x="40" y="64" class="subtitle">Chaque ligne est une trajectoire distincte. La divergence s'installe après une dizaine de tokens — visualisation procédurale (100 trajectoires affichées sur 1 000 simulées).</text>
  <rect x="110" y="130" width="1010" height="360" fill="none" stroke="#d4cdb6" stroke-width="0.6"/>
  <rect x="170.6" y="130" width="949.4" height="360" class="divergence-zone"/>
  <line x1="110.0" y1="130" x2="110.0" y2="490" class="grid"/>
  <line x1="236.2" y1="130" x2="236.2" y2="490" class="grid"/>
  <line x1="362.5" y1="130" x2="362.5" y2="490" class="grid"/>
  <line x1="488.8" y1="130" x2="488.8" y2="490" class="grid"/>
  <line x1="615.0" y1="130" x2="615.0" y2="490" class="grid"/>
  <line x1="741.2" y1="130" x2="741.2" y2="490" class="grid"/>
  <line x1="867.5" y1="130" x2="867.5" y2="490" class="grid"/>
  <line x1="993.8" y1="130" x2="993.8" y2="490" class="grid"/>
  <line x1="1120.0" y1="130" x2="1120.0" y2="490" class="grid"/>
  <line x1="110" y1="130.0" x2="1120" y2="130.0" class="grid"/>
  <line x1="110" y1="220.0" x2="1120" y2="220.0" class="grid"/>
  <line x1="110" y1="310.0" x2="1120" y2="310.0" class="grid"/>
  <line x1="110" y1="400.0" x2="1120" y2="400.0" class="grid"/>
  <line x1="110" y1="490.0" x2="1120" y2="490.0" class="grid"/>
  <circle cx="110" cy="310" r="3" class="marker"/>
  <!-- 100 trajectories -->
    <path d="M110.0,310.8 L160.5,308.4 L211.0,303.7 L261.5,297.3 L312.0,290.6 L362.5,282.5 L413.0,275.7 L463.5,266.5 L514.0,258.7 L564.5,252.2 L615.0,248.0 L665.5,240.4 L716.0,229.5 L766.5,220.8 L817.0,210.1 L867.5,196.1 L918.0,189.7 L968.5,186.2 L1019.0,182.5 L1069.5,180.3 L1120.0,169.9" class="traj"/>
    <path d="M110.0,309.0 L160.5,305.3 L211.0,302.1 L261.5,295.2 L312.0,287.5 L362.5,281.1 L413.0,275.1 L463.5,267.6 L514.0,263.3 L564.5,259.0 L615.0,252.5 L665.5,241.9 L716.0,231.7 L766.5,220.9 L817.0,204.8 L867.5,189.0 L918.0,183.9 L968.5,172.0 L1019.0,168.8 L1069.5,157.2 L1120.0,150.8" class="traj"/>
    <path d="M110.0,309.1 L160.5,305.5 L211.0,299.1 L261.5,291.7 L312.0,285.0 L362.5,275.5 L413.0,268.7 L463.5,262.2 L514.0,251.9 L564.5,247.0 L615.0,239.0 L665.5,226.1 L716.0,214.2 L766.5,201.0 L817.0,189.3 L867.5,178.9 L918.0,173.2 L968.5,168.2 L1019.0,162.7 L1069.5,157.0 L1120.0,144.3" class="traj"/>
    <path d="M110.0,309.3 L160.5,305.7 L211.0,301.2 L261.5,294.1 L312.0,288.8 L362.5,280.9 L413.0,272.0 L463.5,262.1 L514.0,257.7 L564.5,251.9 L615.0,246.1 L665.5,238.9 L716.0,230.3 L766.5,216.9 L817.0,209.7 L867.5,201.4 L918.0,195.8 L968.5,191.3 L1019.0,187.0 L1069.5,179.5 L1120.0,163.1" class="traj"/>
    <path d="M110.0,311.1 L160.5,309.2 L211.0,305.0 L261.5,298.1 L312.0,289.9 L362.5,282.4 L413.0,278.0 L463.5,272.5 L514.0,269.3 L564.5,265.7 L615.0,256.8 L665.5,250.7 L716.0,238.2 L766.5,227.4 L817.0,218.9 L867.5,214.8 L918.0,203.4 L968.5,191.9 L1019.0,185.5 L1069.5,181.0 L1120.0,173.0" class="traj"/>
    <path d="M110.0,309.5 L160.5,307.7 L211.0,302.3 L261.5,295.8 L312.0,287.1 L362.5,281.6 L413.0,275.7 L463.5,269.5 L514.0,264.1 L564.5,253.9 L615.0,243.6 L665.5,230.3 L716.0,220.2 L766.5,211.9 L817.0,198.3 L867.5,188.3 L918.0,178.7 L968.5,173.7 L1019.0,168.9 L1069.5,163.0 L1120.0,146.7" class="traj"/>
    <path d="M110.0,311.0 L160.5,309.7 L211.0,305.1 L261.5,298.5 L312.0,292.3 L362.5,285.9 L413.0,281.5 L463.5,273.6 L514.0,265.7 L564.5,259.0 L615.0,251.9 L665.5,240.6 L716.0,231.5 L766.5,223.0 L817.0,216.2 L867.5,214.0 L918.0,212.7 L968.5,202.2 L1019.0,192.6 L1069.5,177.5 L1120.0,160.4" class="traj"/>
    <path d="M110.0,309.9 L160.5,305.9 L211.0,300.8 L261.5,293.9 L312.0,287.8 L362.5,283.5 L413.0,279.2 L463.5,276.0 L514.0,272.7 L564.5,266.8 L615.0,255.0 L665.5,245.9 L716.0,232.6 L766.5,221.2 L817.0,210.9 L867.5,205.3 L918.0,198.4 L968.5,192.5 L1019.0,186.2 L1069.5,178.5 L1120.0,170.7" class="traj"/>
    <path d="M110.0,310.3 L160.5,308.7 L211.0,303.1 L261.5,297.7 L312.0,290.4 L362.5,283.7 L413.0,277.6 L463.5,269.7 L514.0,262.8 L564.5,257.2 L615.0,249.4 L665.5,236.7 L716.0,231.1 L766.5,222.7 L817.0,212.3 L867.5,202.2 L918.0,196.7 L968.5,183.1 L1019.0,172.5 L1069.5,161.5 L1120.0,146.3" class="traj"/>
    <path d="M110.0,309.6 L160.5,306.6 L211.0,300.9 L261.5,294.7 L312.0,289.8 L362.5,285.5 L413.0,278.1 L463.5,270.6 L514.0,265.2 L564.5,256.1 L615.0,247.0 L665.5,241.1 L716.0,236.4 L766.5,231.5 L817.0,224.9 L867.5,215.5 L918.0,210.4 L968.5,200.2 L1019.0,191.3 L1069.5,183.5 L1120.0,178.1" class="traj"/>
    <path d="M110.0,310.3 L160.5,306.8 L211.0,301.0 L261.5,296.7 L312.0,292.3 L362.5,288.7 L413.0,281.7 L463.5,273.2 L514.0,267.7 L564.5,258.2 L615.0,249.0 L665.5,240.9 L716.0,235.0 L766.5,226.6 L817.0,216.7 L867.5,208.3 L918.0,203.0 L968.5,189.0 L1019.0,177.7 L1069.5,170.8 L1120.0,154.7" class="traj"/>
    <path d="M110.0,308.9 L160.5,305.4 L211.0,301.1 L261.5,295.8 L312.0,293.0 L362.5,286.0 L413.0,280.6 L463.5,276.4 L514.0,270.8 L564.5,265.9 L615.0,256.2 L665.5,246.0 L716.0,241.5 L766.5,231.9 L817.0,226.0 L867.5,220.8 L918.0,212.9 L968.5,206.4 L1019.0,196.7 L1069.5,181.4 L1120.0,172.1" class="traj"/>
    <path d="M110.0,309.9 L160.5,307.9 L211.0,305.2 L261.5,299.3 L312.0,292.9 L362.5,288.9 L413.0,282.4 L463.5,276.3 L514.0,266.2 L564.5,259.6 L615.0,249.0 L665.5,242.2 L716.0,232.1 L766.5,223.6 L817.0,213.0 L867.5,205.6 L918.0,200.8 L968.5,185.3 L1019.0,167.9 L1069.5,156.9 L1120.0,150.6" class="traj"/>
    <path d="M110.0,309.0 L160.5,307.1 L211.0,302.6 L261.5,297.3 L312.0,294.5 L362.5,288.4 L413.0,281.1 L463.5,275.2 L514.0,265.6 L564.5,259.1 L615.0,252.9 L665.5,242.7 L716.0,240.7 L766.5,235.0 L817.0,231.7 L867.5,219.7 L918.0,211.8 L968.5,204.6 L1019.0,190.5 L1069.5,182.3 L1120.0,171.4" class="traj"/>
    <path d="M110.0,309.0 L160.5,305.2 L211.0,300.4 L261.5,295.3 L312.0,290.0 L362.5,283.9 L413.0,276.3 L463.5,268.5 L514.0,262.4 L564.5,253.1 L615.0,244.9 L665.5,237.3 L716.0,228.3 L766.5,224.3 L817.0,217.6 L867.5,209.7 L918.0,194.8 L968.5,183.7 L1019.0,169.2 L1069.5,159.2 L1120.0,153.1" class="traj"/>
    <path d="M110.0,309.2 L160.5,307.7 L211.0,303.2 L261.5,297.9 L312.0,294.0 L362.5,287.5 L413.0,279.5 L463.5,271.4 L514.0,265.0 L564.5,258.1 L615.0,251.5 L665.5,247.8 L716.0,239.2 L766.5,229.5 L817.0,222.4 L867.5,215.1 L918.0,201.0 L968.5,185.6 L1019.0,179.4 L1069.5,173.2 L1120.0,163.4" class="traj"/>
    <path d="M110.0,310.9 L160.5,308.2 L211.0,303.4 L261.5,299.0 L312.0,295.5 L362.5,290.6 L413.0,287.3 L463.5,279.6 L514.0,270.3 L564.5,267.0 L615.0,259.5 L665.5,258.2 L716.0,251.4 L766.5,247.2 L817.0,242.0 L867.5,234.1 L918.0,220.2 L968.5,207.0 L1019.0,197.6 L1069.5,187.0 L1120.0,182.0" class="traj"/>
    <path d="M110.0,310.2 L160.5,307.8 L211.0,305.7 L261.5,303.9 L312.0,299.8 L362.5,297.6 L413.0,291.7 L463.5,283.4 L514.0,280.4 L564.5,278.1 L615.0,276.0 L665.5,270.1 L716.0,268.1 L766.5,262.1 L817.0,253.8 L867.5,244.0 L918.0,234.4 L968.5,221.3 L1019.0,215.4 L1069.5,213.0 L1120.0,210.8" class="traj"/>
    <path d="M110.0,309.6 L160.5,306.9 L211.0,304.4 L261.5,302.2 L312.0,296.9 L362.5,291.1 L413.0,286.3 L463.5,282.1 L514.0,274.6 L564.5,271.4 L615.0,265.7 L665.5,262.4 L716.0,256.9 L766.5,254.7 L817.0,245.8 L867.5,237.3 L918.0,227.1 L968.5,215.8 L1019.0,209.2 L1069.5,210.5 L1120.0,204.2" class="traj"/>
    <path d="M110.0,310.9 L160.5,309.8 L211.0,307.6 L261.5,306.1 L312.0,304.5 L362.5,302.1 L413.0,295.0 L463.5,288.6 L514.0,286.1 L564.5,284.4 L615.0,279.6 L665.5,276.1 L716.0,271.1 L766.5,268.4 L817.0,265.2 L867.5,259.4 L918.0,256.0 L968.5,251.2 L1019.0,252.0 L1069.5,254.3 L1120.0,257.1" class="traj"/>
    <path d="M110.0,310.3 L160.5,308.4 L211.0,306.3 L261.5,301.7 L312.0,295.8 L362.5,288.3 L413.0,281.8 L463.5,276.9 L514.0,274.1 L564.5,271.1 L615.0,269.3 L665.5,264.6 L716.0,255.3 L766.5,248.5 L817.0,244.4 L867.5,237.3 L918.0,228.9 L968.5,222.4 L1019.0,222.6 L1069.5,220.5 L1120.0,219.2" class="traj"/>
    <path d="M110.0,309.7 L160.5,308.6 L211.0,307.3 L261.5,302.7 L312.0,297.1 L362.5,293.0 L413.0,289.0 L463.5,285.5 L514.0,279.3 L564.5,277.5 L615.0,276.3 L665.5,272.6 L716.0,269.7 L766.5,265.7 L817.0,257.3 L867.5,254.1 L918.0,244.4 L968.5,237.0 L1019.0,232.2 L1069.5,232.3 L1120.0,233.3" class="traj"/>
    <path d="M110.0,309.1 L160.5,307.4 L211.0,305.4 L261.5,300.4 L312.0,298.1 L362.5,292.9 L413.0,285.6 L463.5,280.6 L514.0,279.7 L564.5,274.0 L615.0,268.4 L665.5,261.1 L716.0,257.0 L766.5,248.3 L817.0,243.3 L867.5,238.2 L918.0,236.2 L968.5,233.5 L1019.0,226.1 L1069.5,223.5 L1120.0,214.0" class="traj"/>
    <path d="M110.0,308.9 L160.5,308.5 L211.0,305.6 L261.5,303.5 L312.0,301.6 L362.5,297.7 L413.0,293.6 L463.5,288.8 L514.0,288.8 L564.5,282.8 L615.0,279.0 L665.5,272.6 L716.0,266.5 L766.5,260.8 L817.0,251.4 L867.5,243.1 L918.0,238.6 L968.5,236.0 L1019.0,234.3 L1069.5,233.3 L1120.0,224.0" class="traj"/>
    <path d="M110.0,310.3 L160.5,308.5 L211.0,306.9 L261.5,305.4 L312.0,301.9 L362.5,300.3 L413.0,295.9 L463.5,294.4 L514.0,291.8 L564.5,289.8 L615.0,283.8 L665.5,281.7 L716.0,276.2 L766.5,265.6 L817.0,263.8 L867.5,255.7 L918.0,255.9 L968.5,249.0 L1019.0,249.5 L1069.5,248.6 L1120.0,240.3" class="traj"/>
    <path d="M110.0,309.2 L160.5,306.9 L211.0,303.4 L261.5,299.4 L312.0,296.8 L362.5,291.1 L413.0,288.2 L463.5,287.3 L514.0,284.7 L564.5,281.3 L615.0,280.2 L665.5,272.1 L716.0,269.5 L766.5,259.7 L817.0,258.8 L867.5,257.3 L918.0,256.1 L968.5,252.2 L1019.0,254.2 L1069.5,253.1 L1120.0,249.7" class="traj"/>
    <path d="M110.0,310.3 L160.5,307.7 L211.0,304.8 L261.5,300.6 L312.0,295.7 L362.5,292.1 L413.0,289.9 L463.5,286.2 L514.0,283.3 L564.5,276.3 L615.0,273.9 L665.5,265.4 L716.0,262.5 L766.5,255.3 L817.0,251.7 L867.5,247.7 L918.0,244.3 L968.5,244.3 L1019.0,234.6 L1069.5,226.1 L1120.0,222.1" class="traj"/>
    <path d="M110.0,308.8 L160.5,306.3 L211.0,304.6 L261.5,300.3 L312.0,297.2 L362.5,294.8 L413.0,290.5 L463.5,286.5 L514.0,281.4 L564.5,276.1 L615.0,273.2 L665.5,263.5 L716.0,260.8 L766.5,256.8 L817.0,251.2 L867.5,251.9 L918.0,248.0 L968.5,246.4 L1019.0,238.4 L1069.5,231.1 L1120.0,223.0" class="traj"/>
    <path d="M110.0,311.1 L160.5,310.2 L211.0,309.6 L261.5,305.3 L312.0,302.3 L362.5,299.1 L413.0,297.7 L463.5,296.6 L514.0,291.6 L564.5,287.9 L615.0,282.2 L665.5,278.9 L716.0,271.4 L766.5,263.8 L817.0,257.8 L867.5,259.1 L918.0,257.2 L968.5,256.4 L1019.0,250.6 L1069.5,243.0 L1120.0,230.4" class="traj"/>
    <path d="M110.0,309.6 L160.5,309.1 L211.0,307.1 L261.5,302.9 L312.0,301.6 L362.5,298.2 L413.0,297.1 L463.5,295.0 L514.0,294.7 L564.5,288.0 L615.0,284.0 L665.5,281.5 L716.0,278.8 L766.5,273.4 L817.0,270.6 L867.5,272.4 L918.0,271.8 L968.5,264.6 L1019.0,260.2 L1069.5,247.9 L1120.0,238.8" class="traj"/>
    <path d="M110.0,309.8 L160.5,307.4 L211.0,304.4 L261.5,301.7 L312.0,298.5 L362.5,295.7 L413.0,294.3 L463.5,293.4 L514.0,291.6 L564.5,284.9 L615.0,279.3 L665.5,274.8 L716.0,268.7 L766.5,267.0 L817.0,262.1 L867.5,262.3 L918.0,262.4 L968.5,256.5 L1019.0,250.9 L1069.5,247.2 L1120.0,236.0" class="traj"/>
    <path d="M110.0,310.8 L160.5,309.1 L211.0,308.1 L261.5,304.4 L312.0,301.3 L362.5,300.8 L413.0,298.1 L463.5,297.1 L514.0,296.5 L564.5,294.2 L615.0,286.8 L665.5,286.4 L716.0,280.0 L766.5,282.7 L817.0,281.8 L867.5,281.1 L918.0,278.1 L968.5,269.2 L1019.0,259.2 L1069.5,250.3 L1120.0,242.1" class="traj"/>
    <path d="M110.0,311.2 L160.5,308.8 L211.0,307.7 L261.5,305.0 L312.0,303.0 L362.5,301.9 L413.0,300.4 L463.5,299.4 L514.0,294.2 L564.5,287.6 L615.0,286.7 L665.5,281.1 L716.0,277.4 L766.5,273.7 L817.0,275.2 L867.5,269.6 L918.0,262.9 L968.5,252.9 L1019.0,244.8 L1069.5,238.4 L1120.0,235.4" class="traj"/>
    <path d="M110.0,309.6 L160.5,309.2 L211.0,308.8 L261.5,308.6 L312.0,306.3 L362.5,305.8 L413.0,303.0 L463.5,302.1 L514.0,296.0 L564.5,291.9 L615.0,290.7 L665.5,289.3 L716.0,289.6 L766.5,292.5 L817.0,294.0 L867.5,293.8 L918.0,292.6 L968.5,288.1 L1019.0,282.9 L1069.5,276.3 L1120.0,274.2" class="traj"/>
    <path d="M110.0,310.2 L160.5,308.6 L211.0,305.6 L261.5,304.1 L312.0,301.6 L362.5,301.9 L413.0,301.9 L463.5,298.4 L514.0,293.5 L564.5,289.2 L615.0,285.1 L665.5,280.8 L716.0,278.5 L766.5,275.3 L817.0,273.1 L867.5,271.3 L918.0,263.7 L968.5,261.8 L1019.0,257.5 L1069.5,249.4 L1120.0,245.4" class="traj"/>
    <path d="M110.0,309.2 L160.5,307.6 L211.0,305.0 L261.5,302.8 L312.0,299.0 L362.5,297.8 L413.0,294.8 L463.5,293.8 L514.0,286.7 L564.5,283.2 L615.0,280.3 L665.5,276.5 L716.0,277.6 L766.5,275.9 L817.0,274.3 L867.5,269.6 L918.0,259.3 L968.5,248.1 L1019.0,244.6 L1069.5,239.5 L1120.0,234.8" class="traj"/>
    <path d="M110.0,309.7 L160.5,307.4 L211.0,306.2 L261.5,304.6 L312.0,304.2 L362.5,304.2 L413.0,300.5 L463.5,296.3 L514.0,294.0 L564.5,288.7 L615.0,287.5 L665.5,285.9 L716.0,282.9 L766.5,280.6 L817.0,277.6 L867.5,272.8 L918.0,267.9 L968.5,264.4 L1019.0,262.2 L1069.5,256.1 L1120.0,250.3" class="traj"/>
    <path d="M110.0,310.3 L160.5,309.7 L211.0,308.0 L261.5,305.7 L312.0,305.3 L362.5,305.4 L413.0,301.7 L463.5,300.8 L514.0,298.1 L564.5,293.5 L615.0,290.2 L665.5,287.9 L716.0,290.0 L766.5,285.2 L817.0,281.3 L867.5,276.1 L918.0,271.3 L968.5,265.4 L1019.0,258.3 L1069.5,262.3 L1120.0,256.8" class="traj"/>
    <path d="M110.0,308.8 L160.5,307.6 L211.0,307.2 L261.5,304.5 L312.0,301.0 L362.5,300.4 L413.0,295.4 L463.5,291.8 L514.0,286.1 L564.5,283.4 L615.0,282.8 L665.5,283.6 L716.0,285.4 L766.5,285.2 L817.0,284.3 L867.5,275.8 L918.0,267.3 L968.5,260.0 L1019.0,254.6 L1069.5,259.7 L1120.0,254.8" class="traj"/>
    <path d="M110.0,310.2 L160.5,309.4 L211.0,309.2 L261.5,307.2 L312.0,305.1 L362.5,302.1 L413.0,298.7 L463.5,296.7 L514.0,296.3 L564.5,293.0 L615.0,295.4 L665.5,295.0 L716.0,289.8 L766.5,290.3 L817.0,281.9 L867.5,278.2 L918.0,269.2 L968.5,267.3 L1019.0,261.6 L1069.5,261.4 L1120.0,259.6" class="traj"/>
    <path d="M110.0,309.0 L160.5,308.6 L211.0,306.2 L261.5,303.9 L312.0,301.2 L362.5,300.3 L413.0,296.9 L463.5,293.1 L514.0,290.9 L564.5,287.7 L615.0,285.6 L665.5,281.7 L716.0,283.2 L766.5,283.3 L817.0,281.7 L867.5,272.9 L918.0,272.0 L968.5,268.0 L1019.0,269.8 L1069.5,271.3 L1120.0,276.0" class="traj"/>
    <path d="M110.0,309.1 L160.5,307.1 L211.0,305.6 L261.5,303.3 L312.0,302.4 L362.5,298.8 L413.0,295.9 L463.5,296.3 L514.0,296.2 L564.5,294.6 L615.0,293.6 L665.5,291.0 L716.0,286.9 L766.5,284.3 L817.0,278.6 L867.5,274.6 L918.0,276.5 L968.5,277.2 L1019.0,280.9 L1069.5,284.0 L1120.0,285.8" class="traj"/>
    <path d="M110.0,309.2 L160.5,308.2 L211.0,306.3 L261.5,305.8 L312.0,303.3 L362.5,300.6 L413.0,299.5 L463.5,296.3 L514.0,295.6 L564.5,292.9 L615.0,289.7 L665.5,290.5 L716.0,286.5 L766.5,281.3 L817.0,276.9 L867.5,277.5 L918.0,273.5 L968.5,273.3 L1019.0,268.6 L1069.5,269.7 L1120.0,261.8" class="traj"/>
    <path d="M110.0,310.2 L160.5,309.0 L211.0,307.2 L261.5,304.0 L312.0,301.9 L362.5,297.5 L413.0,296.3 L463.5,295.8 L514.0,292.5 L564.5,291.3 L615.0,288.1 L665.5,283.5 L716.0,281.2 L766.5,275.3 L817.0,270.8 L867.5,269.4 L918.0,271.1 L968.5,276.1 L1019.0,276.7 L1069.5,277.9 L1120.0,269.4" class="traj"/>
    <path d="M110.0,310.9 L160.5,310.0 L211.0,308.4 L261.5,306.5 L312.0,304.4 L362.5,302.2 L413.0,301.6 L463.5,302.9 L514.0,302.3 L564.5,301.2 L615.0,303.3 L665.5,300.8 L716.0,298.1 L766.5,298.5 L817.0,294.9 L867.5,289.9 L918.0,286.6 L968.5,284.0 L1019.0,284.3 L1069.5,288.6 L1120.0,290.5" class="traj"/>
    <path d="M110.0,310.0 L160.5,310.5 L211.0,311.6 L261.5,312.7 L312.0,312.3 L362.5,309.7 L413.0,312.0 L463.5,315.5 L514.0,317.2 L564.5,317.1 L615.0,318.9 L665.5,315.2 L716.0,316.0 L766.5,316.1 L817.0,312.8 L867.5,312.6 L918.0,314.7 L968.5,319.5 L1019.0,317.7 L1069.5,318.3 L1120.0,318.6" class="traj"/>
    <path d="M110.0,309.1 L160.5,308.0 L211.0,307.9 L261.5,305.0 L312.0,305.6 L362.5,304.7 L413.0,303.3 L463.5,301.6 L514.0,299.4 L564.5,295.9 L615.0,296.3 L665.5,295.8 L716.0,291.2 L766.5,288.2 L817.0,287.0 L867.5,289.2 L918.0,289.0 L968.5,286.6 L1019.0,290.5 L1069.5,282.7 L1120.0,277.2" class="traj"/>
    <path d="M110.0,310.4 L160.5,309.3 L211.0,307.2 L261.5,305.1 L312.0,302.5 L362.5,300.1 L413.0,300.4 L463.5,297.7 L514.0,300.0 L564.5,302.2 L615.0,300.7 L665.5,301.6 L716.0,302.5 L766.5,299.8 L817.0,303.3 L867.5,302.1 L918.0,299.2 L968.5,299.3 L1019.0,302.6 L1069.5,297.6 L1120.0,294.1" class="traj"/>
    <path d="M110.0,311.1 L160.5,311.0 L211.0,310.9 L261.5,309.5 L312.0,309.6 L362.5,307.8 L413.0,307.9 L463.5,311.0 L514.0,308.5 L564.5,310.2 L615.0,309.5 L665.5,307.4 L716.0,306.3 L766.5,306.2 L817.0,303.3 L867.5,301.6 L918.0,304.9 L968.5,309.1 L1019.0,312.1 L1069.5,313.6 L1120.0,312.1" class="traj"/>
    <path d="M110.0,308.9 L160.5,309.6 L211.0,308.3 L261.5,306.9 L312.0,308.1 L362.5,309.3 L413.0,307.9 L463.5,307.4 L514.0,305.1 L564.5,305.1 L615.0,302.7 L665.5,302.1 L716.0,304.7 L766.5,304.3 L817.0,302.3 L867.5,306.5 L918.0,307.8 L968.5,307.2 L1019.0,310.1 L1069.5,309.9 L1120.0,312.2" class="traj"/>
    <path d="M110.0,310.4 L160.5,311.2 L211.0,311.3 L261.5,311.4 L312.0,313.3 L362.5,312.8 L413.0,316.2 L463.5,319.8 L514.0,321.9 L564.5,323.1 L615.0,325.6 L665.5,321.7 L716.0,323.9 L766.5,323.3 L817.0,329.4 L867.5,331.7 L918.0,333.9 L968.5,337.3 L1019.0,337.2 L1069.5,339.0 L1120.0,340.3" class="traj"/>
    <path d="M110.0,310.4 L160.5,310.3 L211.0,311.2 L261.5,311.5 L312.0,313.5 L362.5,316.0 L413.0,316.2 L463.5,318.1 L514.0,316.8 L564.5,315.8 L615.0,315.1 L665.5,315.1 L716.0,312.1 L766.5,315.1 L817.0,318.1 L867.5,323.6 L918.0,322.3 L968.5,318.0 L1019.0,314.2 L1069.5,313.5 L1120.0,318.0" class="traj"/>
    <path d="M110.0,310.7 L160.5,310.8 L211.0,311.7 L261.5,310.9 L312.0,310.4 L362.5,311.2 L413.0,312.0 L463.5,310.3 L514.0,307.9 L564.5,309.1 L615.0,308.1 L665.5,310.9 L716.0,308.8 L766.5,313.4 L817.0,312.1 L867.5,311.4 L918.0,314.1 L968.5,317.0 L1019.0,310.6 L1069.5,304.5 L1120.0,305.2" class="traj"/>
    <path d="M110.0,310.5 L160.5,311.1 L211.0,311.7 L261.5,312.6 L312.0,313.9 L362.5,317.4 L413.0,320.3 L463.5,319.5 L514.0,317.0 L564.5,317.7 L615.0,319.7 L665.5,324.4 L716.0,329.8 L766.5,330.1 L817.0,333.6 L867.5,332.9 L918.0,329.1 L968.5,332.0 L1019.0,327.3 L1069.5,325.9 L1120.0,329.0" class="traj"/>
    <path d="M110.0,309.8 L160.5,308.8 L211.0,308.8 L261.5,311.2 L312.0,311.9 L362.5,314.8 L413.0,316.3 L463.5,316.7 L514.0,314.0 L564.5,316.4 L615.0,317.7 L665.5,322.7 L716.0,328.3 L766.5,336.0 L817.0,337.6 L867.5,338.9 L918.0,338.6 L968.5,337.3 L1019.0,332.8 L1069.5,334.9 L1120.0,341.4" class="traj"/>
    <path d="M110.0,310.9 L160.5,311.6 L211.0,312.9 L261.5,313.7 L312.0,313.1 L362.5,315.7 L413.0,314.3 L463.5,315.0 L514.0,311.6 L564.5,310.4 L615.0,313.9 L665.5,315.0 L716.0,320.7 L766.5,326.0 L817.0,327.2 L867.5,331.6 L918.0,328.6 L968.5,331.4 L1019.0,335.4 L1069.5,340.4 L1120.0,346.5" class="traj"/>
    <path d="M110.0,309.1 L160.5,308.3 L211.0,309.4 L261.5,310.3 L312.0,313.2 L362.5,313.6 L413.0,312.1 L463.5,308.9 L514.0,309.8 L564.5,307.4 L615.0,304.9 L665.5,309.5 L716.0,316.1 L766.5,317.5 L817.0,320.4 L867.5,315.6 L918.0,311.7 L968.5,313.8 L1019.0,318.1 L1069.5,316.2 L1120.0,319.5" class="traj"/>
    <path d="M110.0,309.1 L160.5,310.5 L211.0,313.0 L261.5,315.8 L312.0,319.2 L362.5,318.6 L413.0,320.7 L463.5,322.0 L514.0,320.8 L564.5,319.0 L615.0,318.5 L665.5,324.7 L716.0,329.0 L766.5,334.0 L817.0,331.9 L867.5,327.4 L918.0,327.7 L968.5,324.5 L1019.0,330.7 L1069.5,331.0 L1120.0,336.0" class="traj"/>
    <path d="M110.0,309.3 L160.5,308.9 L211.0,310.6 L261.5,311.5 L312.0,313.8 L362.5,313.5 L413.0,311.2 L463.5,312.6 L514.0,315.4 L564.5,315.3 L615.0,317.0 L665.5,317.4 L716.0,321.4 L766.5,325.5 L817.0,323.3 L867.5,319.0 L918.0,321.4 L968.5,325.4 L1019.0,326.4 L1069.5,329.0 L1120.0,338.4" class="traj"/>
    <path d="M110.0,310.3 L160.5,312.0 L211.0,314.4 L261.5,315.0 L312.0,315.7 L362.5,317.8 L413.0,320.4 L463.5,323.6 L514.0,327.1 L564.5,330.8 L615.0,332.2 L665.5,332.9 L716.0,333.2 L766.5,333.0 L817.0,330.6 L867.5,334.3 L918.0,331.8 L968.5,331.6 L1019.0,336.5 L1069.5,336.9 L1120.0,346.4" class="traj"/>
    <path d="M110.0,310.0 L160.5,310.1 L211.0,310.6 L261.5,312.8 L312.0,315.6 L362.5,316.1 L413.0,318.9 L463.5,321.5 L514.0,326.4 L564.5,326.6 L615.0,329.7 L665.5,331.5 L716.0,336.1 L766.5,340.1 L817.0,342.5 L867.5,345.6 L918.0,346.3 L968.5,353.4 L1019.0,355.3 L1069.5,361.5 L1120.0,364.9" class="traj"/>
    <path d="M110.0,309.7 L160.5,309.3 L211.0,312.0 L261.5,313.1 L312.0,315.4 L362.5,316.7 L413.0,319.7 L463.5,321.9 L514.0,327.5 L564.5,332.9 L615.0,339.1 L665.5,342.8 L716.0,348.5 L766.5,347.5 L817.0,346.2 L867.5,347.5 L918.0,350.1 L968.5,351.9 L1019.0,360.7 L1069.5,370.2 L1120.0,371.9" class="traj"/>
    <path d="M110.0,310.1 L160.5,311.2 L211.0,312.0 L261.5,313.7 L312.0,313.0 L362.5,313.3 L413.0,315.6 L463.5,318.5 L514.0,321.6 L564.5,327.4 L615.0,333.7 L665.5,334.8 L716.0,337.9 L766.5,340.5 L817.0,339.0 L867.5,340.7 L918.0,347.5 L968.5,357.1 L1019.0,366.2 L1069.5,372.8 L1120.0,371.7" class="traj"/>
    <path d="M110.0,311.1 L160.5,312.7 L211.0,314.4 L261.5,314.7 L312.0,314.3 L362.5,314.1 L413.0,317.8 L463.5,318.1 L514.0,319.9 L564.5,323.2 L615.0,324.2 L665.5,323.0 L716.0,323.3 L766.5,319.8 L817.0,315.3 L867.5,313.2 L918.0,312.2 L968.5,312.3 L1019.0,315.6 L1069.5,316.3 L1120.0,312.8" class="traj"/>
    <path d="M110.0,309.7 L160.5,310.0 L211.0,312.6 L261.5,312.7 L312.0,314.3 L362.5,313.4 L413.0,316.4 L463.5,317.8 L514.0,318.1 L564.5,318.5 L615.0,319.4 L665.5,321.2 L716.0,320.4 L766.5,324.4 L817.0,324.5 L867.5,327.8 L918.0,331.9 L968.5,336.2 L1019.0,340.8 L1069.5,340.0 L1120.0,335.4" class="traj"/>
    <path d="M110.0,310.4 L160.5,310.9 L211.0,312.7 L261.5,314.1 L312.0,313.4 L362.5,314.6 L413.0,318.7 L463.5,323.8 L514.0,325.9 L564.5,331.4 L615.0,337.0 L665.5,338.9 L716.0,340.3 L766.5,340.7 L817.0,339.3 L867.5,338.6 L918.0,345.5 L968.5,354.6 L1019.0,361.6 L1069.5,360.4 L1120.0,358.2" class="traj"/>
    <path d="M110.0,309.4 L160.5,310.1 L211.0,311.2 L261.5,313.1 L312.0,314.7 L362.5,314.4 L413.0,317.4 L463.5,323.4 L514.0,325.7 L564.5,328.3 L615.0,326.9 L665.5,330.1 L716.0,328.6 L766.5,330.0 L817.0,333.6 L867.5,336.5 L918.0,337.9 L968.5,344.2 L1019.0,347.2 L1069.5,352.1 L1120.0,350.3" class="traj"/>
    <path d="M110.0,310.9 L160.5,312.5 L211.0,313.2 L261.5,314.1 L312.0,317.1 L362.5,320.9 L413.0,323.1 L463.5,325.1 L514.0,325.7 L564.5,331.3 L615.0,336.2 L665.5,337.4 L716.0,339.5 L766.5,344.3 L817.0,352.5 L867.5,361.2 L918.0,367.7 L968.5,369.9 L1019.0,369.1 L1069.5,367.1 L1120.0,370.2" class="traj"/>
    <path d="M110.0,309.8 L160.5,311.0 L211.0,313.8 L261.5,317.2 L312.0,320.5 L362.5,322.8 L413.0,326.2 L463.5,331.9 L514.0,335.0 L564.5,334.9 L615.0,339.7 L665.5,343.3 L716.0,342.9 L766.5,343.1 L817.0,344.1 L867.5,347.6 L918.0,354.7 L968.5,356.0 L1019.0,353.9 L1069.5,353.4 L1120.0,349.8" class="traj"/>
    <path d="M110.0,310.1 L160.5,310.3 L211.0,311.8 L261.5,313.1 L312.0,313.5 L362.5,315.7 L413.0,320.8 L463.5,321.8 L514.0,325.9 L564.5,325.9 L615.0,330.2 L665.5,329.3 L716.0,327.6 L766.5,330.1 L817.0,336.1 L867.5,343.5 L918.0,348.0 L968.5,354.7 L1019.0,361.6 L1069.5,365.6 L1120.0,362.5" class="traj"/>
    <path d="M110.0,311.2 L160.5,313.6 L211.0,315.5 L261.5,317.8 L312.0,319.9 L362.5,322.8 L413.0,324.7 L463.5,326.5 L514.0,327.3 L564.5,329.9 L615.0,333.2 L665.5,334.4 L716.0,335.5 L766.5,339.0 L817.0,348.5 L867.5,357.7 L918.0,359.5 L968.5,361.5 L1019.0,361.2 L1069.5,366.7 L1120.0,370.2" class="traj"/>
    <path d="M110.0,309.8 L160.5,310.2 L211.0,311.3 L261.5,313.1 L312.0,314.6 L362.5,317.9 L413.0,319.7 L463.5,325.1 L514.0,325.0 L564.5,325.7 L615.0,328.9 L665.5,328.0 L716.0,329.3 L766.5,337.6 L817.0,344.9 L867.5,345.8 L918.0,352.3 L968.5,351.4 L1019.0,350.1 L1069.5,354.4 L1120.0,356.0" class="traj"/>
    <path d="M110.0,309.7 L160.5,310.9 L211.0,312.8 L261.5,314.0 L312.0,317.4 L362.5,320.2 L413.0,325.3 L463.5,331.1 L514.0,332.0 L564.5,333.0 L615.0,336.4 L665.5,337.0 L716.0,342.8 L766.5,352.0 L817.0,357.6 L867.5,359.9 L918.0,363.2 L968.5,367.4 L1019.0,369.1 L1069.5,371.5 L1120.0,380.8" class="traj"/>
    <path d="M110.0,309.7 L160.5,311.9 L211.0,312.8 L261.5,315.9 L312.0,320.1 L362.5,324.3 L413.0,326.3 L463.5,332.2 L514.0,332.0 L564.5,333.0 L615.0,333.9 L665.5,338.4 L716.0,346.6 L766.5,352.0 L817.0,357.7 L867.5,365.4 L918.0,367.6 L968.5,367.7 L1019.0,364.3 L1069.5,366.8 L1120.0,377.2" class="traj"/>
    <path d="M110.0,309.8 L160.5,312.5 L211.0,314.2 L261.5,318.3 L312.0,322.6 L362.5,328.3 L413.0,330.1 L463.5,333.1 L514.0,338.7 L564.5,344.4 L615.0,345.0 L665.5,347.4 L716.0,356.2 L766.5,367.5 L817.0,372.1 L867.5,380.8 L918.0,388.9 L968.5,394.8 L1019.0,403.2 L1069.5,407.0 L1120.0,419.3" class="traj"/>
    <path d="M110.0,308.9 L160.5,310.9 L211.0,311.9 L261.5,316.2 L312.0,319.9 L362.5,325.6 L413.0,327.9 L463.5,330.7 L514.0,332.4 L564.5,332.3 L615.0,336.5 L665.5,339.5 L716.0,344.3 L766.5,352.2 L817.0,356.3 L867.5,357.8 L918.0,359.8 L968.5,358.0 L1019.0,365.1 L1069.5,375.0 L1120.0,383.1" class="traj"/>
    <path d="M110.0,310.4 L160.5,313.6 L211.0,315.9 L261.5,320.1 L312.0,326.5 L362.5,330.4 L413.0,336.5 L463.5,340.4 L514.0,344.6 L564.5,351.3 L615.0,356.4 L665.5,363.6 L716.0,370.3 L766.5,381.0 L817.0,387.8 L867.5,397.1 L918.0,405.8 L968.5,412.3 L1019.0,423.5 L1069.5,428.1 L1120.0,434.1" class="traj"/>
    <path d="M110.0,309.9 L160.5,312.3 L211.0,315.5 L261.5,318.0 L312.0,322.3 L362.5,328.3 L413.0,329.9 L463.5,332.3 L514.0,333.6 L564.5,335.1 L615.0,338.8 L665.5,341.6 L716.0,347.8 L766.5,355.1 L817.0,355.3 L867.5,356.9 L918.0,363.5 L968.5,361.9 L1019.0,370.9 L1069.5,375.8 L1120.0,386.9" class="traj"/>
    <path d="M110.0,309.7 L160.5,312.5 L211.0,314.9 L261.5,320.3 L312.0,326.1 L362.5,331.3 L413.0,334.8 L463.5,336.9 L514.0,343.4 L564.5,351.9 L615.0,361.1 L665.5,368.1 L716.0,374.8 L766.5,377.8 L817.0,380.4 L867.5,388.1 L918.0,387.3 L968.5,396.7 L1019.0,409.2 L1069.5,416.3 L1120.0,421.0" class="traj"/>
    <path d="M110.0,309.8 L160.5,312.4 L211.0,316.4 L261.5,318.6 L312.0,320.3 L362.5,324.4 L413.0,325.5 L463.5,326.9 L514.0,332.9 L564.5,336.5 L615.0,345.7 L665.5,355.0 L716.0,358.2 L766.5,362.6 L817.0,370.6 L867.5,375.3 L918.0,381.3 L968.5,382.3 L1019.0,393.3 L1069.5,402.3 L1120.0,408.6" class="traj"/>
    <path d="M110.0,310.2 L160.5,312.7 L211.0,315.3 L261.5,317.7 L312.0,322.3 L362.5,325.4 L413.0,328.0 L463.5,332.4 L514.0,338.4 L564.5,345.5 L615.0,352.8 L665.5,360.5 L716.0,363.7 L766.5,371.2 L817.0,376.5 L867.5,380.1 L918.0,388.5 L968.5,390.8 L1019.0,404.9 L1069.5,415.7 L1120.0,419.6" class="traj"/>
    <path d="M110.0,310.7 L160.5,311.8 L211.0,314.5 L261.5,319.5 L312.0,323.2 L362.5,326.0 L413.0,329.9 L463.5,333.7 L514.0,342.0 L564.5,348.9 L615.0,353.0 L665.5,359.2 L716.0,367.3 L766.5,374.2 L817.0,378.1 L867.5,381.2 L918.0,387.0 L968.5,390.9 L1019.0,399.2 L1069.5,412.8 L1120.0,426.3" class="traj"/>
    <path d="M110.0,310.9 L160.5,313.1 L211.0,316.3 L261.5,318.9 L312.0,322.1 L362.5,326.5 L413.0,332.3 L463.5,340.0 L514.0,344.2 L564.5,348.2 L615.0,355.5 L665.5,360.7 L716.0,367.5 L766.5,374.0 L817.0,382.1 L867.5,391.5 L918.0,396.4 L968.5,408.3 L1019.0,418.3 L1069.5,433.4 L1120.0,436.7" class="traj"/>
    <path d="M110.0,310.9 L160.5,314.8 L211.0,319.5 L261.5,325.2 L312.0,331.2 L362.5,334.1 L413.0,337.5 L463.5,344.2 L514.0,349.1 L564.5,359.5 L615.0,366.7 L665.5,376.5 L716.0,379.0 L766.5,383.9 L817.0,390.7 L867.5,393.1 L918.0,406.3 L968.5,419.0 L1019.0,425.0 L1069.5,438.6 L1120.0,448.8" class="traj"/>
    <path d="M110.0,310.3 L160.5,311.8 L211.0,316.1 L261.5,319.7 L312.0,324.9 L362.5,329.9 L413.0,335.4 L463.5,339.2 L514.0,347.0 L564.5,352.7 L615.0,362.4 L665.5,368.1 L716.0,375.8 L766.5,377.1 L817.0,383.8 L867.5,391.7 L918.0,405.1 L968.5,410.7 L1019.0,415.6 L1069.5,419.7 L1120.0,431.6" class="traj"/>
    <path d="M110.0,310.3 L160.5,314.3 L211.0,319.6 L261.5,325.4 L312.0,331.6 L362.5,339.3 L413.0,345.1 L463.5,353.2 L514.0,359.6 L564.5,368.6 L615.0,373.5 L665.5,376.7 L716.0,382.0 L766.5,389.1 L817.0,396.8 L867.5,407.5 L918.0,413.6 L968.5,427.5 L1019.0,439.0 L1069.5,451.2 L1120.0,454.3" class="traj"/>
    <path d="M110.0,310.3 L160.5,314.0 L211.0,318.9 L261.5,323.5 L312.0,328.1 L362.5,332.6 L413.0,338.5 L463.5,346.2 L514.0,354.3 L564.5,360.0 L615.0,363.6 L665.5,368.0 L716.0,372.2 L766.5,375.4 L817.0,378.9 L867.5,388.7 L918.0,400.9 L968.5,409.8 L1019.0,413.8 L1069.5,418.0 L1120.0,417.0" class="traj"/>
    <path d="M110.0,309.6 L160.5,312.6 L211.0,317.7 L261.5,321.6 L312.0,326.3 L362.5,330.0 L413.0,335.6 L463.5,342.2 L514.0,348.5 L564.5,355.5 L615.0,364.0 L665.5,371.6 L716.0,380.5 L766.5,387.1 L817.0,398.0 L867.5,407.3 L918.0,415.4 L968.5,423.9 L1019.0,436.2 L1069.5,447.9 L1120.0,451.8" class="traj"/>
    <path d="M110.0,309.8 L160.5,312.8 L211.0,316.9 L261.5,322.5 L312.0,327.2 L362.5,331.8 L413.0,339.2 L463.5,344.9 L514.0,353.5 L564.5,360.8 L615.0,369.9 L665.5,378.9 L716.0,381.5 L766.5,385.8 L817.0,394.2 L867.5,408.8 L918.0,417.8 L968.5,426.6 L1019.0,432.3 L1069.5,434.9 L1120.0,434.5" class="traj"/>
    <path d="M110.0,309.8 L160.5,312.4 L211.0,315.6 L261.5,319.3 L312.0,324.3 L362.5,332.2 L413.0,336.5 L463.5,341.7 L514.0,348.8 L564.5,356.1 L615.0,362.1 L665.5,364.8 L716.0,367.5 L766.5,375.8 L817.0,383.4 L867.5,396.4 L918.0,405.5 L968.5,415.2 L1019.0,423.2 L1069.5,425.5 L1120.0,436.4" class="traj"/>
    <path d="M110.0,310.5 L160.5,311.9 L211.0,316.3 L261.5,319.9 L312.0,325.4 L362.5,330.7 L413.0,339.4 L463.5,344.5 L514.0,352.4 L564.5,355.7 L615.0,357.7 L665.5,366.0 L716.0,369.3 L766.5,373.9 L817.0,381.4 L867.5,388.9 L918.0,396.1 L968.5,403.0 L1019.0,402.9 L1069.5,412.7 L1120.0,413.0" class="traj"/>
    <path d="M110.0,309.5 L160.5,310.7 L211.0,313.3 L261.5,315.8 L312.0,321.1 L362.5,328.6 L413.0,334.8 L463.5,339.0 L514.0,346.6 L564.5,349.2 L615.0,357.0 L665.5,366.3 L716.0,372.8 L766.5,385.9 L817.0,393.5 L867.5,405.0 L918.0,419.0 L968.5,425.0 L1019.0,434.1 L1069.5,434.6 L1120.0,443.0" class="traj"/>
    <path d="M110.0,310.8 L160.5,313.8 L211.0,319.5 L261.5,325.1 L312.0,333.2 L362.5,342.2 L413.0,351.1 L463.5,358.7 L514.0,367.3 L564.5,376.8 L615.0,382.3 L665.5,387.2 L716.0,393.8 L766.5,406.0 L817.0,421.7 L867.5,434.8 L918.0,439.8 L968.5,450.4 L1019.0,455.2 L1069.5,464.6 L1120.0,474.9" class="traj"/>
    <path d="M110.0,309.0 L160.5,310.9 L211.0,313.1 L261.5,319.5 L312.0,325.9 L362.5,331.8 L413.0,336.5 L463.5,344.6 L514.0,348.1 L564.5,352.8 L615.0,360.6 L665.5,371.6 L716.0,383.3 L766.5,397.4 L817.0,404.6 L867.5,417.6 L918.0,426.6 L968.5,438.0 L1019.0,444.5 L1069.5,455.6 L1120.0,463.3" class="traj"/>
    <path d="M110.0,310.8 L160.5,313.3 L211.0,316.3 L261.5,323.1 L312.0,330.7 L362.5,336.0 L413.0,341.9 L463.5,348.2 L514.0,355.0 L564.5,360.2 L615.0,370.5 L665.5,377.6 L716.0,390.3 L766.5,398.3 L817.0,412.4 L867.5,418.5 L918.0,430.2 L968.5,440.8 L1019.0,445.5 L1069.5,451.2 L1120.0,457.4" class="traj"/>
    <path d="M110.0,310.8 L160.5,313.0 L211.0,317.0 L261.5,323.8 L312.0,331.1 L362.5,337.8 L413.0,342.6 L463.5,347.1 L514.0,353.8 L564.5,360.1 L615.0,370.5 L665.5,382.5 L716.0,392.0 L766.5,405.1 L817.0,415.4 L867.5,422.4 L918.0,433.5 L968.5,440.2 L1019.0,453.0 L1069.5,468.4 L1120.0,478.3" class="traj"/>
    <path d="M110.0,309.7 L160.5,313.8 L211.0,317.8 L261.5,325.1 L312.0,331.6 L362.5,338.4 L413.0,342.7 L463.5,351.2 L514.0,360.4 L564.5,367.4 L615.0,375.2 L665.5,388.3 L716.0,401.8 L766.5,415.4 L817.0,423.2 L867.5,427.9 L918.0,430.9 L968.5,442.1 L1019.0,456.4 L1069.5,471.1 L1120.0,486.2" class="traj"/>
    <path d="M110.0,309.3 L160.5,313.0 L211.0,316.9 L261.5,323.0 L312.0,329.2 L362.5,333.7 L413.0,341.4 L463.5,348.1 L514.0,356.4 L564.5,362.0 L615.0,369.0 L665.5,381.3 L716.0,392.8 L766.5,402.8 L817.0,408.9 L867.5,412.1 L918.0,421.6 L968.5,429.8 L1019.0,439.5 L1069.5,450.6 L1120.0,467.3" class="traj"/>
    <path d="M110.0,311.1 L160.5,314.7 L211.0,320.4 L261.5,325.6 L312.0,331.8 L362.5,336.8 L413.0,345.4 L463.5,353.9 L514.0,359.3 L564.5,365.7 L615.0,377.3 L665.5,386.5 L716.0,397.5 L766.5,410.9 L817.0,416.1 L867.5,422.2 L918.0,433.8 L968.5,441.1 L1019.0,457.2 L1069.5,470.5 L1120.0,484.9" class="traj"/>
    <path d="M110.0,309.2 L160.5,312.9 L211.0,319.0 L261.5,324.0 L312.0,332.0 L362.5,336.7 L413.0,341.0 L463.5,344.9 L514.0,354.7 L564.5,365.5 L615.0,374.9 L665.5,384.8 L716.0,393.2 L766.5,398.7 L817.0,403.3 L867.5,407.3 L918.0,417.4 L968.5,424.8 L1019.0,439.6 L1069.5,455.7 L1120.0,473.1" class="traj"/>
  <!-- 3 highlighted trajectories -->
  <path d="M110.0,309.2 L160.5,307.7 L211.0,303.2 L261.5,297.9 L312.0,294.0 L362.5,287.5 L413.0,279.5 L463.5,271.4 L514.0,265.0 L564.5,258.1 L615.0,251.5 L665.5,247.8 L716.0,239.2 L766.5,229.5 L817.0,222.4 L867.5,215.1 L918.0,201.0 L968.5,185.6 L1019.0,179.4 L1069.5,173.2 L1120.0,163.4" class="traj-up"/>
  <path d="M110.0,310.4 L160.5,311.2 L211.0,311.3 L261.5,311.4 L312.0,313.3 L362.5,312.8 L413.0,316.2 L463.5,319.8 L514.0,321.9 L564.5,323.1 L615.0,325.6 L665.5,321.7 L716.0,323.9 L766.5,323.3 L817.0,329.4 L867.5,331.7 L918.0,333.9 L968.5,337.3 L1019.0,337.2 L1069.5,339.0 L1120.0,340.3" class="traj-mid"/>
  <path d="M110.0,310.3 L160.5,314.3 L211.0,319.6 L261.5,325.4 L312.0,331.6 L362.5,339.3 L413.0,345.1 L463.5,353.2 L514.0,359.6 L564.5,368.6 L615.0,373.5 L665.5,376.7 L716.0,382.0 L766.5,389.1 L817.0,396.8 L867.5,407.5 L918.0,413.6 L968.5,427.5 L1019.0,439.0 L1069.5,451.2 L1120.0,454.3" class="traj-down"/>
  <line x1="110" y1="490" x2="1120" y2="490" class="baseline"/>
  <text x="615" y="540" text-anchor="middle" class="axis-title">Position du token de sortie</text>
  <text x="110.0" y="508" text-anchor="middle" class="label">0</text>
  <text x="362.5" y="508" text-anchor="middle" class="label">50</text>
  <text x="615.0" y="508" text-anchor="middle" class="label">100</text>
  <text x="867.5" y="508" text-anchor="middle" class="label">150</text>
  <text x="1120.0" y="508" text-anchor="middle" class="label">200</text>
  <line x1="110" y1="130" x2="110" y2="490" class="baseline"/>
  <text x="50" y="310" text-anchor="middle" class="axis-title" transform="rotate(-90 50 310)">Dérive sémantique cumulée</text>
  <text x="102" y="314" text-anchor="end" class="label">0</text>
  <text x="102" y="134" text-anchor="end" class="label">+</text>
  <text x="102" y="490" text-anchor="end" class="label">−</text>
  <text x="870.0" y="159.4" class="annotation" fill="#7a1e1e">Trajectoire convergente (sortie « courte »)</text>
  <text x="990.0" y="344.3" class="annotation" fill="#1a1a1a">Trajectoire moyenne</text>
  <text x="840.0" y="468.3" class="annotation" fill="#b8582e">Trajectoire divergente (sortie hors-distribution)</text>
  <line x1="170.6" y1="126" x2="170.6" y2="494" stroke="#7a1e1e" stroke-width="0.8" stroke-dasharray="3,3" opacity="0.7"/>
  <text x="170.6" y="122" text-anchor="middle" class="label" fill="#7a1e1e">divergence ≈ token 12</text>
  <g transform="translate(40, 560)">
    <rect x="0" y="0" width="1120" height="56" fill="#f0e9d4" stroke="#d4cdb6" stroke-width="0.6"/>
    <text x="20" y="22" class="annotation-em">Test unitaire exact = 1 trajectoire sur 1 000.</text>
    <text x="20" y="44" class="annotation">Ce qu'il faut mesurer, c'est la distribution : <tspan font-family="JetBrains Mono, monospace" font-size="12">n</tspan> rejouages, intervalle de confiance, pass@<tspan font-family="JetBrains Mono, monospace" font-size="12">k</tspan> vs pass^<tspan font-family="JetBrains Mono, monospace" font-size="12">k</tspan> (cf. Ch. 17).</text>
  </g>
</svg>
