<svg xmlns="http://www.w3.org/2000/svg" viewBox="0 0 1300 800" preserveAspectRatio="xMidYMid meet" role="img" aria-labelledby="title desc">
  <title id="title">L&#8217;atelier &#183; Stade 3 &#183; Production</title>
  <desc id="desc">Sch&#233;ma 07 &#8212; Cross-section frontale de la fabrique au stade Production : 4 silhouettes (DEV, PO, SRE, AUDIT), mur de 6 piliers d&#8217;observabilit&#233;, coffre-fort registries au centre, cordon rouge approval gate au sol, horloge SLA au plafond, compteur FinOps, et 3 lignes de d&#233;fense en transparence en arri&#232;re-plan.</desc>
  <defs>
    <style>
      <![CDATA[
        .display { font-family: 'Fraunces', 'Cambria', serif; font-weight: 600; font-size: 28px; letter-spacing: -0.01em; fill: #1e1e2a; }
        .subtitle { font-family: 'Fraunces', 'Cambria', serif; font-style: italic; font-weight: 400; font-size: 18px; fill: #6b6f7c; }
        .body { font-family: 'Inter', system-ui, sans-serif; font-size: 13px; fill: #1e1e2a; }
        .body-label { font-family: 'Inter', system-ui, sans-serif; font-weight: 500; font-size: 15px; fill: #1e1e2a; }
        .caption { font-family: 'Inter', system-ui, sans-serif; font-style: italic; font-size: 12px; fill: #6b6f7c; }
        .mono { font-family: 'JetBrains Mono', 'Consolas', monospace; font-size: 12px; font-weight: 600; }
        .numeric-callout { font-family: 'JetBrains Mono', 'Consolas', monospace; font-size: 15px; font-weight: 500; fill: #b8582e; }
        .schema-marker { font-family: 'JetBrains Mono', 'Consolas', monospace; font-size: 12px; font-weight: 600; letter-spacing: 0.16em; fill: #b8582e; }
        .faded { opacity: 0.15; }
      ]]>
    </style>
    <!-- Arrowhead markers -->
    <marker id="arrow-ink" viewBox="0 0 10 10" refX="8" refY="5" markerWidth="6" markerHeight="6" orient="auto">
      <path d="M 0 0 L 10 5 L 0 10 z" fill="#1e1e2a"/>
    </marker>
    <marker id="arrow-carmine" viewBox="0 0 10 10" refX="8" refY="5" markerWidth="6" markerHeight="6" orient="auto">
      <path d="M 0 0 L 10 5 L 0 10 z" fill="#b8582e"/>
    </marker>
    <marker id="arrow-graphite" viewBox="0 0 10 10" refX="8" refY="5" markerWidth="6" markerHeight="6" orient="auto">
      <path d="M 0 0 L 10 5 L 0 10 z" fill="#6b6f7c"/>
    </marker>
  </defs>

  <!-- ===== BACKGROUND ===== -->
  <rect width="1300" height="800" fill="#faf6ec"/>

  <!-- Mur du fond &#8212; traits verticaux discrets -->
  <g id="background-wall">
    <line x1="80"  y1="100" x2="80"  y2="720" stroke="rgba(30,30,44,0.04)" stroke-width="1"/>
    <line x1="180" y1="100" x2="180" y2="720" stroke="rgba(30,30,44,0.04)" stroke-width="1"/>
    <line x1="280" y1="100" x2="280" y2="720" stroke="rgba(30,30,44,0.04)" stroke-width="1"/>
    <line x1="380" y1="100" x2="380" y2="720" stroke="rgba(30,30,44,0.04)" stroke-width="1"/>
    <line x1="480" y1="100" x2="480" y2="720" stroke="rgba(30,30,44,0.04)" stroke-width="1"/>
    <line x1="580" y1="100" x2="580" y2="720" stroke="rgba(30,30,44,0.04)" stroke-width="1"/>
    <line x1="680" y1="100" x2="680" y2="720" stroke="rgba(30,30,44,0.04)" stroke-width="1"/>
    <line x1="780" y1="100" x2="780" y2="720" stroke="rgba(30,30,44,0.04)" stroke-width="1"/>
    <line x1="880" y1="100" x2="880" y2="720" stroke="rgba(30,30,44,0.04)" stroke-width="1"/>
    <line x1="980" y1="100" x2="980" y2="720" stroke="rgba(30,30,44,0.04)" stroke-width="1"/>
    <line x1="1080" y1="100" x2="1080" y2="720" stroke="rgba(30,30,44,0.04)" stroke-width="1"/>
    <line x1="1180" y1="100" x2="1180" y2="720" stroke="rgba(30,30,44,0.04)" stroke-width="1"/>
  </g>

  <!-- Sol -->
  <line x1="40" y1="720" x2="1260" y2="720" stroke="#9a9ca5" stroke-width="0.6"/>

  <!-- ===== TOP BANDEAU ===== -->
  <g id="title-band">
    <text x="60" y="40" class="schema-marker">SCH&#201;MA 07</text>
    <text x="60" y="68" class="display">STADE 3 &#183; PRODUCTION</text>
    <text x="60" y="92" class="subtitle">&#171;&#160;&#231;a tient&#160;&#187;</text>
    <line x1="60" y1="106" x2="1240" y2="106" stroke="rgba(30,30,44,0.08)" stroke-width="1"/>
  </g>

  <!-- ===== 3 LIGNES DE DEFENSE (arri&#232;re-plan, opacit&#233; 0.15) ===== -->
  <g id="lines-of-defense" class="faded">
    <!-- 1&#232;re ligne &#8212; gauche -->
    <circle cx="160" cy="340" r="26" fill="#9a9ca5" stroke="#6b6f7c" stroke-width="1.5"/>
    <rect x="148" y="364" width="16" height="14" rx="1" fill="#9a9ca5"/>
    <path d="M 132 378 L 192 378 L 185 460 L 139 460 Z" fill="#6b6f7c"/>
    <line x1="192" y1="392" x2="215" y2="434" stroke="#6b6f7c" stroke-width="10" stroke-linecap="round"/>
    <line x1="132" y1="392" x2="112" y2="434" stroke="#6b6f7c" stroke-width="10" stroke-linecap="round"/>
    <line x1="148" y1="460" x2="144" y2="530" stroke="#6b6f7c" stroke-width="12" stroke-linecap="round"/>
    <line x1="168" y1="460" x2="170" y2="530" stroke="#6b6f7c" stroke-width="12" stroke-linecap="round"/>
    <text x="160" y="315" class="mono" text-anchor="middle" font-size="12" font-weight="600" fill="#6b6f7c">1&#691;&#7497; LIGNE</text>
    <!-- 2&#232;me ligne &#8212; centre -->
    <circle cx="640" cy="308" r="28" fill="#9a9ca5" stroke="#6b6f7c" stroke-width="1.5"/>
    <rect x="627" y="334" width="18" height="15" rx="1" fill="#9a9ca5"/>
    <path d="M 608 349 L 675 349 L 668 435 L 615 435 Z" fill="#6b6f7c"/>
    <line x1="675" y1="364" x2="700" y2="408" stroke="#6b6f7c" stroke-width="11" stroke-linecap="round"/>
    <line x1="608" y1="364" x2="586" y2="408" stroke="#6b6f7c" stroke-width="11" stroke-linecap="round"/>
    <line x1="623" y1="435" x2="619" y2="510" stroke="#6b6f7c" stroke-width="13" stroke-linecap="round"/>
    <line x1="645" y1="435" x2="648" y2="510" stroke="#6b6f7c" stroke-width="13" stroke-linecap="round"/>
    <text x="640" y="281" class="mono" text-anchor="middle" font-size="12" font-weight="600" fill="#6b6f7c">2&#691; LIGNE</text>
    <!-- 3&#232;me ligne &#8212; droite -->
    <circle cx="1100" cy="340" r="26" fill="#9a9ca5" stroke="#6b6f7c" stroke-width="1.5"/>
    <rect x="1088" y="364" width="16" height="14" rx="1" fill="#9a9ca5"/>
    <path d="M 1072 378 L 1132 378 L 1125 460 L 1079 460 Z" fill="#6b6f7c"/>
    <line x1="1132" y1="392" x2="1155" y2="434" stroke="#6b6f7c" stroke-width="10" stroke-linecap="round"/>
    <line x1="1072" y1="392" x2="1052" y2="434" stroke="#6b6f7c" stroke-width="10" stroke-linecap="round"/>
    <line x1="1088" y1="460" x2="1084" y2="530" stroke="#6b6f7c" stroke-width="12" stroke-linecap="round"/>
    <line x1="1108" y1="460" x2="1110" y2="530" stroke="#6b6f7c" stroke-width="12" stroke-linecap="round"/>
    <text x="1100" y="315" class="mono" text-anchor="middle" font-size="12" font-weight="600" fill="#6b6f7c">3&#691; LIGNE</text>
  </g>

  <!-- ===== MUR TABLEAU DE BORD 6 PILIERS ===== -->
  <g id="dashboard-6">
    <!-- Fond commun du tableau de bord -->
    <rect x="200" y="118" width="870" height="190" rx="6" fill="#faf6ec" stroke="rgba(30,30,44,0.20)" stroke-width="1.2"/>
    <!-- Titre du tableau de bord -->
    <text x="635" y="138" class="mono" text-anchor="middle" font-size="12" font-weight="600" letter-spacing="0.14em" fill="#6b6f7c">TABLEAU DE BORD PRODUCTION &#8212; 6 PILIERS D&#8217;OBSERVABILIT&#201;</text>
    <line x1="210" y1="145" x2="1060" y2="145" stroke="rgba(30,30,44,0.10)" stroke-width="0.8"/>

    <!-- Rang&#233;e 1 : cadrans 1-3 -->
    <!-- Cadran 1 : USAGE -->
    <rect x="212" y="150" width="128" height="148" rx="4" fill="#f5f3ee" stroke="rgba(30,30,44,0.16)" stroke-width="1"/>
    <text x="276" y="168" class="mono" text-anchor="middle" font-size="12" font-weight="600" letter-spacing="0.10em" fill="#6b6f7c">USAGE</text>
    <line x1="220" y1="173" x2="332" y2="173" stroke="rgba(30,30,44,0.08)" stroke-width="0.6"/>
    <text x="276" y="192" class="caption" text-anchor="middle">tokens &amp; requ&#234;tes</text>
    <text x="276" y="218" class="numeric-callout" text-anchor="middle" font-size="18" font-weight="600">15.2k tok</text>
    <text x="276" y="238" class="mono" text-anchor="middle" font-size="11" font-weight="600" fill="#6b6f7c">/ req (input+output)</text>
    <text x="276" y="268" class="caption" text-anchor="middle">2.3M req / mois</text>
    <text x="276" y="282" class="caption" text-anchor="middle">+12 % MoM</text>

    <!-- Cadran 2 : PERF -->
    <rect x="352" y="150" width="128" height="148" rx="4" fill="#f5f3ee" stroke="rgba(30,30,44,0.16)" stroke-width="1"/>
    <text x="416" y="168" class="mono" text-anchor="middle" font-size="12" font-weight="600" letter-spacing="0.10em" fill="#6b6f7c">PERF</text>
    <line x1="360" y1="173" x2="472" y2="173" stroke="rgba(30,30,44,0.08)" stroke-width="0.6"/>
    <text x="416" y="192" class="caption" text-anchor="middle">latence end-to-end</text>
    <text x="416" y="218" class="numeric-callout" text-anchor="middle" font-size="18" font-weight="600">1.8s p50</text>
    <text x="416" y="238" class="mono" text-anchor="middle" font-size="11" font-weight="600" fill="#6b6f7c">&#183; 4.2s p95</text>
    <text x="416" y="278" class="caption" text-anchor="middle">cible &#8804; 2.5s p50</text>

    <!-- Cadran 3 : COMPORTEMENT -->
    <rect x="492" y="150" width="128" height="148" rx="4" fill="#f5f3ee" stroke="rgba(30,30,44,0.16)" stroke-width="1"/>
    <text x="556" y="168" class="mono" text-anchor="middle" font-size="11" font-weight="600" letter-spacing="0.06em" fill="#6b6f7c">COMPORTEMENT</text>
    <line x1="500" y1="173" x2="612" y2="173" stroke="rgba(30,30,44,0.08)" stroke-width="0.6"/>
    <text x="556" y="192" class="caption" text-anchor="middle">trajectoire vs golden</text>
    <text x="556" y="218" class="numeric-callout" text-anchor="middle" font-size="18" font-weight="600">87 %</text>
    <text x="556" y="238" class="mono" text-anchor="middle" font-size="11" font-weight="600" fill="#6b6f7c">on-path</text>
    <text x="556" y="268" class="caption" text-anchor="middle">tool calls :</text>
    <text x="556" y="282" class="caption" text-anchor="middle">96 % schema-ok</text>

    <!-- Cadran 4 : QUALIT&#201; -->
    <rect x="632" y="150" width="128" height="148" rx="4" fill="#f5f3ee" stroke="rgba(30,30,44,0.16)" stroke-width="1"/>
    <text x="696" y="168" class="mono" text-anchor="middle" font-size="12" font-weight="600" letter-spacing="0.10em" fill="#6b6f7c">QUALIT&#201;</text>
    <line x1="640" y1="173" x2="752" y2="173" stroke="rgba(30,30,44,0.08)" stroke-width="0.6"/>
    <text x="696" y="192" class="caption" text-anchor="middle">&#233;val LLM-as-judge</text>
    <!-- 2 m&#233;triques empil&#233;es : faithfulness + hallucination -->
    <text x="643" y="213" class="mono" font-size="11" font-weight="600" fill="#6b6f7c">faithfulness</text>
    <text x="749" y="213" class="numeric-callout" text-anchor="end" font-size="14" font-weight="500">0.94</text>
    <text x="643" y="233" class="mono" font-size="11" font-weight="600" fill="#6b6f7c">hallucination</text>
    <text x="749" y="233" class="numeric-callout" text-anchor="end" font-size="14" font-weight="500">2.1 %</text>
    <line x1="640" y1="241" x2="752" y2="241" stroke="rgba(30,30,44,0.06)" stroke-width="0.5"/>
    <text x="696" y="268" class="caption" text-anchor="middle">faith &#8805; 0.85</text>
    <text x="696" y="282" class="caption" text-anchor="middle">hall &#8804; 5 %</text>

    <!-- Cadran 5 : GOUVERNANCE -->
    <rect x="772" y="150" width="128" height="148" rx="4" fill="#f5f3ee" stroke="rgba(30,30,44,0.16)" stroke-width="1"/>
    <text x="836" y="168" class="mono" text-anchor="middle" font-size="11" font-weight="600" letter-spacing="0.06em" fill="#6b6f7c">GOUVERNANCE</text>
    <line x1="780" y1="173" x2="892" y2="173" stroke="rgba(30,30,44,0.08)" stroke-width="0.6"/>
    <text x="836" y="192" class="caption" text-anchor="middle">guardrails d&#233;clench&#233;s</text>
    <text x="836" y="218" class="numeric-callout" text-anchor="middle" font-size="18" font-weight="600">2 / h</text>
    <text x="836" y="238" class="mono" text-anchor="middle" font-size="11" font-weight="600" fill="#6b6f7c">(refus + masquage)</text>
    <text x="836" y="278" class="caption" text-anchor="middle">escalation : 0.3 % flow</text>

    <!-- Cadran 6 : DRIFT -->
    <rect x="912" y="150" width="148" height="148" rx="4" fill="#f5f3ee" stroke="rgba(30,30,44,0.16)" stroke-width="1"/>
    <text x="986" y="168" class="mono" text-anchor="middle" font-size="12" font-weight="600" letter-spacing="0.10em" fill="#6b6f7c">DRIFT</text>
    <line x1="920" y1="173" x2="1052" y2="173" stroke="rgba(30,30,44,0.08)" stroke-width="0.6"/>
    <text x="986" y="192" class="caption" text-anchor="middle">variance week-over-week</text>
    <text x="986" y="218" class="numeric-callout" text-anchor="middle" font-size="18" font-weight="600">&#177;3 %</text>
    <text x="986" y="238" class="mono" text-anchor="middle" font-size="11" font-weight="600" fill="#6b6f7c">score qualit&#233;</text>
    <text x="986" y="278" class="caption" text-anchor="middle">stable J-14 &#183; cible &#177;5 %</text>
  </g>

  <!-- ===== PANNEAU BACKLOG STRUCTUR&#201; ===== -->
  <g id="backlog-panel">
    <rect x="60" y="118" width="126" height="160" rx="4" fill="#faf6ec" stroke="rgba(30,30,44,0.22)" stroke-width="0.8"/>
    <!-- Titre du panneau -->
    <text x="123" y="138" class="mono" text-anchor="middle" font-size="11" font-weight="600" letter-spacing="0.10em" fill="#6b6f7c">BACKLOG</text>
    <text x="123" y="152" class="mono" text-anchor="middle" font-size="11" font-weight="600" fill="#b8582e">14 epics</text>
    <line x1="68" y1="158" x2="178" y2="158" stroke="rgba(30,30,44,0.12)" stroke-width="0.6"/>
    <!-- Lignes structur&#233;es EPIC -->
    <rect x="70" y="164" width="8" height="8" rx="1" fill="#b8582e" opacity="0.7"/>
    <text x="84" y="172" class="mono" font-size="11" font-weight="600" fill="#6b6f7c">EPIC 1</text>
    <rect x="70" y="178" width="8" height="8" rx="1" fill="#b8582e" opacity="0.7"/>
    <text x="84" y="186" class="mono" font-size="11" font-weight="600" fill="#6b6f7c">EPIC 2</text>
    <rect x="70" y="192" width="8" height="8" rx="1" fill="#9a9ca5" opacity="0.5"/>
    <text x="84" y="200" class="mono" font-size="11" font-weight="600" fill="#6b6f7c">EPIC 3</text>
    <rect x="70" y="206" width="8" height="8" rx="1" fill="#9a9ca5" opacity="0.5"/>
    <text x="84" y="214" class="mono" font-size="11" font-weight="600" fill="#6b6f7c">EPIC 4</text>
    <rect x="70" y="220" width="8" height="8" rx="1" fill="#9a9ca5" opacity="0.3"/>
    <text x="84" y="228" class="mono" font-size="11" font-weight="600" fill="#9a9ca5">EPIC 5</text>
    <rect x="70" y="234" width="8" height="8" rx="1" fill="#9a9ca5" opacity="0.3"/>
    <text x="84" y="242" class="mono" font-size="11" font-weight="600" fill="#9a9ca5">EPIC 6</text>
    <!-- Ellipse indiquant la suite -->
    <text x="123" y="260" class="caption" text-anchor="middle" font-style="italic">+ 8 autres...</text>
    <text x="123" y="274" class="caption" text-anchor="middle">sprint 9</text>
  </g>

  <!-- ===== TABLE ===== -->
  <g id="table">
    <rect x="340" y="600" width="560" height="20" rx="2" fill="#9a9ca5" stroke="#6b6f7c" stroke-width="0.8"/>
    <rect x="360" y="620" width="8" height="100" fill="#9a9ca5" stroke="#6b6f7c" stroke-width="0.5"/>
    <rect x="884" y="620" width="8" height="100" fill="#9a9ca5" stroke="#6b6f7c" stroke-width="0.5"/>
  </g>

  <!-- ===== NOTEBOOK OUVERT ===== -->
  <g id="notebook">
    <rect x="500" y="548" width="86" height="52" rx="2" fill="#faf6ec" stroke="#6b6f7c" stroke-width="1"/>
    <rect x="586" y="545" width="86" height="55" rx="2" fill="#1e1e2a" stroke="#6b6f7c" stroke-width="1"/>
    <rect x="590" y="549" width="78" height="47" rx="1" fill="#1a2a3a"/>
    <rect x="594" y="553" width="40" height="2.5" rx="1" fill="#b8582e" opacity="0.7"/>
    <rect x="594" y="559" width="60" height="2.5" rx="1" fill="#9a9ca5" opacity="0.5"/>
    <rect x="598" y="565" width="50" height="2.5" rx="1" fill="#9a9ca5" opacity="0.4"/>
    <rect x="598" y="571" width="38" height="2.5" rx="1" fill="#9a9ca5" opacity="0.4"/>
    <rect x="594" y="577" width="55" height="2.5" rx="1" fill="#9a9ca5" opacity="0.3"/>
    <rect x="594" y="583" width="30" height="2.5" rx="1" fill="#9a9ca5" opacity="0.3"/>
    <rect x="624" y="583" width="6" height="6" rx="1" fill="#faf6ec" opacity="0.8"/>
    <rect x="582" y="545" width="8" height="55" rx="1" fill="#6b6f7c"/>
    <line x1="508" y1="562" x2="574" y2="562" stroke="rgba(30,30,44,0.18)" stroke-width="1"/>
    <line x1="508" y1="570" x2="570" y2="570" stroke="rgba(30,30,44,0.14)" stroke-width="1"/>
    <line x1="508" y1="578" x2="574" y2="578" stroke="rgba(30,30,44,0.12)" stroke-width="1"/>
    <line x1="508" y1="586" x2="558" y2="586" stroke="rgba(30,30,44,0.10)" stroke-width="1"/>
  </g>

  <!-- ===== COFFRE-FORT REGISTRIES (centre) ===== -->
  <g id="vault-registries">
    <!-- Corps du coffre-fort -->
    <rect x="560" y="380" width="120" height="110" rx="4" fill="#f5f3ee" stroke="#1e1e2a" stroke-width="2.2"/>
    <!-- Poign&#233;e et serrure -->
    <circle cx="620" cy="432" r="18" fill="#faf6ec" stroke="#1e1e2a" stroke-width="1.8"/>
    <circle cx="620" cy="432" r="9" fill="#9a9ca5" stroke="#6b6f7c" stroke-width="1.2"/>
    <circle cx="620" cy="432" r="3" fill="#1e1e2a"/>
    <!-- Trait de renforcement haut -->
    <line x1="560" y1="400" x2="680" y2="400" stroke="#1e1e2a" stroke-width="1.2" opacity="0.3"/>
    <!-- Trait de renforcement bas -->
    <line x1="560" y1="465" x2="680" y2="465" stroke="#1e1e2a" stroke-width="1.2" opacity="0.3"/>
    <!-- Mini-&#233;tiquettes int&#233;rieures &#8212; gauche (outils) -->
    <text x="578" y="415" class="mono" font-size="11" font-weight="600" fill="#6b6f7c">Tools</text>
    <!-- Mini-&#233;tiquettes int&#233;rieures &#8212; droite (agents) -->
    <text x="640" y="415" class="mono" font-size="11" font-weight="600" fill="#6b6f7c">Agents</text>
    <!-- Titre REGISTRIES au-dessus -->
    <text x="620" y="372" class="body-label" text-anchor="middle" font-weight="500" fill="#1e1e2a">REGISTRIES</text>
    <!-- Handle rotatif (suggestion) -->
    <line x1="620" y1="422" x2="620" y2="414" stroke="#1e1e2a" stroke-width="2" stroke-linecap="round"/>
    <line x1="620" y1="422" x2="628" y2="426" stroke="#1e1e2a" stroke-width="2" stroke-linecap="round"/>
  </g>

  <!-- ===== TUYAU OTEL + BRANCHEMENT VERS COFFRE ===== -->
  <g id="otel-pipe">
    <!-- Nuage OTel -->
    <ellipse cx="640" cy="310" rx="38" ry="18" fill="#faf6ec" stroke="#6b6f7c" stroke-width="1.2"/>
    <ellipse cx="613" cy="316" rx="22" ry="14" fill="#faf6ec" stroke="#6b6f7c" stroke-width="1.2"/>
    <ellipse cx="667" cy="316" rx="22" ry="14" fill="#faf6ec" stroke="#6b6f7c" stroke-width="1.2"/>
    <rect x="595" y="314" width="94" height="16" fill="#faf6ec"/>
    <line x1="595" y1="327" x2="689" y2="327" stroke="#6b6f7c" stroke-width="1.2"/>
    <text x="640" y="320" class="mono" text-anchor="middle" font-size="11" font-weight="600" letter-spacing="0.10em" fill="#b8582e">OTel GenAI</text>
    <!-- Tuyau principal vers notebook -->
    <path d="M 640 330 C 635 400, 630 460, 629 540" fill="none" stroke="#6b6f7c" stroke-width="1.5" stroke-dasharray="5,3"/>
    <line x1="629" y1="540" x2="629" y2="548" stroke="#6b6f7c" stroke-width="1.5" marker-end="url(#arrow-graphite)"/>
    <!-- Branchement vers le coffre (audit trail) -->
    <path d="M 636 360 C 630 375, 620 370, 620 378" fill="none" stroke="#b8582e" stroke-width="1.2" stroke-dasharray="4,3" marker-end="url(#arrow-carmine)"/>
    <text x="586" y="358" class="caption" text-anchor="middle" fill="#b8582e">audit trail</text>
  </g>

  <!-- ===== CORDON ROUGE APPROVAL GATE ===== -->
  <g id="approval-gate">
    <!-- Ligne carmine principale -->
    <line x1="320" y1="665" x2="1240" y2="665" stroke="#b8582e" stroke-width="3"/>
    <!-- Poteau gauche -->
    <rect x="317" y="645" width="6" height="25" rx="2" fill="#b8582e"/>
    <circle cx="320" cy="643" r="5" fill="#b8582e"/>
    <!-- Poteau droit -->
    <rect x="1237" y="645" width="6" height="25" rx="2" fill="#b8582e"/>
    <circle cx="1240" cy="643" r="5" fill="#b8582e"/>
    <!-- &#201;tiquette APPROVAL GATE au centre -->
    <text x="780" y="658" class="body-label" text-anchor="middle" font-weight="500" fill="#b8582e">APPROVAL GATE</text>
    <!-- Sous-titre caption -->
    <text x="780" y="680" class="caption" text-anchor="middle" fill="#b8582e">tout flux sortant passe ici</text>
  </g>

  <!-- ===== HORLOGE SLA AU PLAFOND ===== -->
  <g id="sla-clock">
    <!-- Cercle horloge -->
    <circle cx="1108" cy="64" r="26" fill="#faf6ec" stroke="#1e1e2a" stroke-width="1.5"/>
    <!-- Cadran int&#233;rieur -->
    <circle cx="1108" cy="64" r="22" fill="none" stroke="rgba(30,30,44,0.10)" stroke-width="0.8"/>
    <!-- Aiguille des heures (10h) -->
    <line x1="1108" y1="64" x2="1097" y2="50" stroke="#1e1e2a" stroke-width="2.2" stroke-linecap="round"/>
    <!-- Aiguille des minutes (10) -->
    <line x1="1108" y1="64" x2="1122" y2="50" stroke="#1e1e2a" stroke-width="1.5" stroke-linecap="round"/>
    <!-- Centre de l&#8217;horloge -->
    <circle cx="1108" cy="64" r="2.5" fill="#1e1e2a"/>
    <!-- Label SLA &#224; droite -->
    <text x="1142" y="61" class="mono" font-size="12" font-weight="600" fill="#b8582e">SLA &#183; 99,5 %</text>
    <!-- 12 petits traits cadran -->
    <line x1="1108" y1="42" x2="1108" y2="46" stroke="rgba(30,30,44,0.3)" stroke-width="1"/>
    <line x1="1108" y1="82" x2="1108" y2="86" stroke="rgba(30,30,44,0.3)" stroke-width="1"/>
    <line x1="1082" y1="64" x2="1086" y2="64" stroke="rgba(30,30,44,0.3)" stroke-width="1"/>
    <line x1="1130" y1="64" x2="1134" y2="64" stroke="rgba(30,30,44,0.3)" stroke-width="1"/>
  </g>

  <!-- ===== COMPTEUR FINOPS (pompe &#224; essence, mur de droite) ===== -->
  <g id="finops-counter">
    <!-- Cadre rectangle vertical de la pompe -->
    <rect x="1195" y="310" width="80" height="140" rx="6" fill="#1e1e2a" stroke="#6b6f7c" stroke-width="1.2"/>
    <!-- &#201;cran de la pompe (affichage compteur) -->
    <rect x="1203" y="320" width="64" height="42" rx="3" fill="#0a1a10" stroke="rgba(30,30,44,0.4)" stroke-width="1"/>
    <!-- Affichage num&#233;rique carmine (style 7 segments) -->
    <text x="1235" y="347" class="numeric-callout" text-anchor="middle" font-size="15" font-weight="500" fill="#b8582e">0427.34&#160;&#8364;</text>
    <!-- Logo &#233;lectrique / bouchon -->
    <rect x="1218" y="370" width="28" height="20" rx="3" fill="#6b6f7c" opacity="0.6"/>
    <!-- Tuyau de la pompe (droite) -->
    <path d="M 1235 448 C 1235 465, 1250 468, 1260 468" fill="none" stroke="#6b6f7c" stroke-width="4" stroke-linecap="round"/>
    <!-- Label FINOPS / JOUR en dessous -->
    <text x="1235" y="470" class="mono" text-anchor="middle" font-size="11" font-weight="600" fill="#6b6f7c">FINOPS / JOUR</text>
    <!-- D&#233;tail courant continu -->
    <line x1="1210" y1="400" x2="1260" y2="400" stroke="rgba(184,88,46,0.3)" stroke-width="0.8" stroke-dasharray="3,3"/>
    <!-- Label haut de la pompe -->
    <text x="1235" y="305" class="mono" text-anchor="middle" font-size="11" font-weight="600" letter-spacing="0.10em" fill="#6b6f7c">FINOPS</text>
  </g>

  <!-- ===== PERSONNAGE AUDIT (avant-plan gauche) ===== -->
  <g id="character-audit">
    <circle cx="222" cy="480" r="19" fill="#9a9ca5" stroke="#6b6f7c" stroke-width="1"/>
    <rect x="216" y="497" width="12" height="11" rx="1" fill="#9a9ca5"/>
    <path d="M 202 508 L 244 508 L 239 580" L="208,580" fill="#6b6f7c"/>
    <path d="M 202 508 L 244 508 L 239 580 L 208 580 Z" fill="#6b6f7c"/>
    <!-- Bras droit (tenant un clipboard) -->
    <line x1="244" y1="520" x2="268" y2="548" stroke="#6b6f7c" stroke-width="7" stroke-linecap="round"/>
    <circle cx="270" cy="550" r="4" fill="#9a9ca5"/>
    <!-- Bras gauche vers le bas -->
    <line x1="202" y1="520" x2="188" y2="558" stroke="#6b6f7c" stroke-width="7" stroke-linecap="round"/>
    <!-- Jambes -->
    <line x1="216" y1="580" x2="212" y2="645" stroke="#6b6f7c" stroke-width="8" stroke-linecap="round"/>
    <line x1="232" y1="580" x2="234" y2="645" stroke="#6b6f7c" stroke-width="8" stroke-linecap="round"/>
    <!-- Clipboard -->
    <rect x="264" y="540" width="24" height="30" rx="2" fill="#faf6ec" stroke="#6b6f7c" stroke-width="0.8"/>
    <line x1="268" y1="548" x2="284" y2="548" stroke="rgba(30,30,44,0.25)" stroke-width="1"/>
    <line x1="268" y1="553" x2="282" y2="553" stroke="rgba(30,30,44,0.20)" stroke-width="1"/>
    <line x1="268" y1="558" x2="284" y2="558" stroke="rgba(30,30,44,0.15)" stroke-width="1"/>
    <!-- Label AUDIT -->
    <text x="222" y="456" class="mono" text-anchor="middle" font-size="12" font-weight="600" fill="#6b6f7c">AUDIT</text>
  </g>

  <!-- ===== PERSONNAGE DEV ===== -->
  <g id="character-dev">
    <circle cx="440" cy="438" r="20" fill="#9a9ca5" stroke="#6b6f7c" stroke-width="1"/>
    <rect x="434" y="456" width="12" height="12" rx="1" fill="#9a9ca5"/>
    <path d="M 418 468 L 462 468 L 456 545 L 424 545 Z" fill="#6b6f7c"/>
    <line x1="462" y1="480" x2="480" y2="530" stroke="#6b6f7c" stroke-width="8" stroke-linecap="round"/>
    <line x1="418" y1="480" x2="500" y2="555" stroke="#6b6f7c" stroke-width="8" stroke-linecap="round"/>
    <circle cx="502" cy="557" r="5" fill="#9a9ca5"/>
    <line x1="432" y1="545" x2="428" y2="620" stroke="#6b6f7c" stroke-width="9" stroke-linecap="round"/>
    <line x1="448" y1="545" x2="450" y2="620" stroke="#6b6f7c" stroke-width="9" stroke-linecap="round"/>
    <text x="440" y="412" class="mono" text-anchor="middle" font-size="12" font-weight="600" fill="#6b6f7c">DEV</text>
  </g>

  <!-- ===== PERSONNAGE PO ===== -->
  <g id="character-po">
    <circle cx="726" cy="480" r="20" fill="#9a9ca5" stroke="#6b6f7c" stroke-width="1"/>
    <rect x="719" y="498" width="14" height="12" rx="1" fill="#9a9ca5"/>
    <path d="M 704 510 L 750 510 L 744 580 L 710 580 Z" fill="#6b6f7c"/>
    <line x1="750" y1="522" x2="772" y2="552" stroke="#6b6f7c" stroke-width="8" stroke-linecap="round"/>
    <circle cx="774" cy="554" r="5" fill="#9a9ca5"/>
    <line x1="704" y1="522" x2="686" y2="560" stroke="#6b6f7c" stroke-width="8" stroke-linecap="round"/>
    <line x1="718" y1="580" x2="714" y2="648" stroke="#6b6f7c" stroke-width="9" stroke-linecap="round"/>
    <line x1="736" y1="580" x2="738" y2="648" stroke="#6b6f7c" stroke-width="9" stroke-linecap="round"/>
    <text x="726" y="456" class="mono" text-anchor="middle" font-size="12" font-weight="600" fill="#6b6f7c">PO</text>
  </g>

  <!-- ===== PERSONNAGE SRE ===== -->
  <g id="character-sre">
    <circle cx="900" cy="480" r="20" fill="#9a9ca5" stroke="#6b6f7c" stroke-width="1"/>
    <rect x="894" y="498" width="12" height="12" rx="1" fill="#9a9ca5"/>
    <path d="M 878 510 L 922 510 L 917 580 L 884 580 Z" fill="#6b6f7c"/>
    <!-- Bras droit (vers tableau de bord) -->
    <line x1="922" y1="520" x2="950" y2="492" stroke="#6b6f7c" stroke-width="8" stroke-linecap="round"/>
    <circle cx="952" cy="490" r="5" fill="#9a9ca5"/>
    <!-- Bras gauche -->
    <line x1="878" y1="520" x2="858" y2="555" stroke="#6b6f7c" stroke-width="8" stroke-linecap="round"/>
    <!-- Jambes -->
    <line x1="892" y1="580" x2="888" y2="648" stroke="#6b6f7c" stroke-width="9" stroke-linecap="round"/>
    <line x1="908" y1="580" x2="910" y2="648" stroke="#6b6f7c" stroke-width="9" stroke-linecap="round"/>
    <text x="900" y="456" class="mono" text-anchor="middle" font-size="12" font-weight="600" fill="#6b6f7c">SRE</text>
  </g>

  <!-- ===== CAPTION BAS DE PAGE ===== -->
  <text x="650" y="755" class="caption" text-anchor="middle">
    Quatre personnages, six piliers d&#8217;observabilit&#233;, un coffre-fort, un cordon rouge, un compteur FinOps. La discipline d&#8217;&#233;quipe rend lisible l&#8217;arbitrage co&#251;t &#215; latence &#215; qualit&#233;.
  </text>

</svg>
